<svg xmlns="http://www.w3.org/2000/svg" xmlns:xlink="http://www.w3.org/1999/xlink" width="300" zoomAndPan="magnify" viewBox="0 0 224.87999 37.5" height="50" preserveAspectRatio="xMidYMid meet" version="1.0"><defs><g/></defs><g fill="#ffffff" fill-opacity="1"><g transform="translate(15.290494, 12.582237)"><g><path d="M 9.234375 -2.9375 L 3 -2.9375 L 1.703125 0 L -0.015625 0 L 5.296875 -11.734375 L 6.953125 -11.734375 L 12.296875 0 L 10.53125 0 Z M 8.65625 -4.28125 L 6.125 -10.03125 L 3.59375 -4.28125 Z M 8.65625 -4.28125 "/></g></g></g><g fill="#ffffff" fill-opacity="1"><g transform="translate(31.725598, 12.582237)"><g><path d="M 9.65625 -6.078125 C 10.332031 -5.890625 10.867188 -5.546875 11.265625 -5.046875 C 11.660156 -4.554688 11.859375 -3.929688 11.859375 -3.171875 C 11.859375 -2.148438 11.472656 -1.363281 10.703125 -0.8125 C 9.941406 -0.269531 8.828125 0 7.359375 0 L 1.765625 0 L 1.765625 -11.734375 L 7.03125 -11.734375 C 8.363281 -11.734375 9.394531 -11.460938 10.125 -10.921875 C 10.863281 -10.390625 11.234375 -9.648438 11.234375 -8.703125 C 11.234375 -8.085938 11.085938 -7.554688 10.796875 -7.109375 C 10.515625 -6.660156 10.132812 -6.316406 9.65625 -6.078125 Z M 3.4375 -10.375 L 3.4375 -6.625 L 6.875 -6.625 C 7.738281 -6.625 8.398438 -6.78125 8.859375 -7.09375 C 9.328125 -7.414062 9.5625 -7.882812 9.5625 -8.5 C 9.5625 -9.113281 9.328125 -9.578125 8.859375 -9.890625 C 8.398438 -10.210938 7.738281 -10.375 6.875 -10.375 Z M 7.296875 -1.359375 C 8.242188 -1.359375 8.957031 -1.515625 9.4375 -1.828125 C 9.914062 -2.140625 10.15625 -2.628906 10.15625 -3.296875 C 10.15625 -4.609375 9.203125 -5.265625 7.296875 -5.265625 L 3.4375 -5.265625 L 3.4375 -1.359375 Z M 7.296875 -1.359375 "/></g></g></g><g fill="#ffffff" fill-opacity="1"><g transform="translate(48.579916, 12.582237)"><g><path d="M 7.0625 0.140625 C 5.875 0.140625 4.804688 -0.117188 3.859375 -0.640625 C 2.910156 -1.160156 2.164062 -1.878906 1.625 -2.796875 C 1.082031 -3.710938 0.8125 -4.738281 0.8125 -5.875 C 0.8125 -7 1.082031 -8.019531 1.625 -8.9375 C 2.164062 -9.851562 2.910156 -10.570312 3.859375 -11.09375 C 4.804688 -11.613281 5.875 -11.875 7.0625 -11.875 C 8.226562 -11.875 9.285156 -11.613281 10.234375 -11.09375 C 11.191406 -10.570312 11.9375 -9.851562 12.46875 -8.9375 C 13.007812 -8.03125 13.28125 -7.007812 13.28125 -5.875 C 13.28125 -4.726562 13.007812 -3.695312 12.46875 -2.78125 C 11.9375 -1.875 11.191406 -1.160156 10.234375 -0.640625 C 9.285156 -0.117188 8.226562 0.140625 7.0625 0.140625 Z M 7.0625 -1.359375 C 7.914062 -1.359375 8.6875 -1.550781 9.375 -1.9375 C 10.0625 -2.332031 10.601562 -2.875 11 -3.5625 C 11.40625 -4.25 11.609375 -5.019531 11.609375 -5.875 C 11.609375 -6.71875 11.40625 -7.484375 11 -8.171875 C 10.601562 -8.859375 10.0625 -9.394531 9.375 -9.78125 C 8.6875 -10.175781 7.914062 -10.375 7.0625 -10.375 C 6.195312 -10.375 5.414062 -10.175781 4.71875 -9.78125 C 4.019531 -9.394531 3.472656 -8.859375 3.078125 -8.171875 C 2.679688 -7.484375 2.484375 -6.71875 2.484375 -5.875 C 2.484375 -5.019531 2.679688 -4.25 3.078125 -3.5625 C 3.472656 -2.875 4.019531 -2.332031 4.71875 -1.9375 C 5.414062 -1.550781 6.195312 -1.359375 7.0625 -1.359375 Z M 7.0625 -1.359375 "/></g></g></g><g fill="#ffffff" fill-opacity="1"><g transform="translate(66.826027, 12.582237)"><g><path d="M 6.625 0.140625 C 5.0625 0.140625 3.84375 -0.304688 2.96875 -1.203125 C 2.09375 -2.097656 1.65625 -3.382812 1.65625 -5.0625 L 1.65625 -11.734375 L 3.34375 -11.734375 L 3.34375 -5.125 C 3.34375 -2.613281 4.441406 -1.359375 6.640625 -1.359375 C 7.710938 -1.359375 8.53125 -1.664062 9.09375 -2.28125 C 9.664062 -2.90625 9.953125 -3.851562 9.953125 -5.125 L 9.953125 -11.734375 L 11.578125 -11.734375 L 11.578125 -5.0625 C 11.578125 -3.375 11.140625 -2.082031 10.265625 -1.1875 C 9.398438 -0.300781 8.1875 0.140625 6.625 0.140625 Z M 6.625 0.140625 "/></g></g></g><g fill="#ffffff" fill-opacity="1"><g transform="translate(84.250474, 12.582237)"><g><path d="M 4.09375 -10.28125 L 0.0625 -10.28125 L 0.0625 -11.734375 L 9.78125 -11.734375 L 9.78125 -10.28125 L 5.75 -10.28125 L 5.75 0 L 4.09375 0 Z M 4.09375 -10.28125 "/></g></g></g><g fill="#ffffff" fill-opacity="1"><g transform="translate(98.25414, 12.582237)"><g/></g></g><g fill="#ffffff" fill-opacity="1"><g transform="translate(106.925394, 12.582237)"><g><path d="M 9.609375 0 L 7.078125 -3.609375 C 6.765625 -3.585938 6.519531 -3.578125 6.34375 -3.578125 L 3.4375 -3.578125 L 3.4375 0 L 1.765625 0 L 1.765625 -11.734375 L 6.34375 -11.734375 C 7.863281 -11.734375 9.054688 -11.367188 9.921875 -10.640625 C 10.796875 -9.921875 11.234375 -8.921875 11.234375 -7.640625 C 11.234375 -6.734375 11.007812 -5.960938 10.5625 -5.328125 C 10.113281 -4.691406 9.476562 -4.226562 8.65625 -3.9375 L 11.4375 0 Z M 6.28125 -5 C 7.34375 -5 8.15625 -5.226562 8.71875 -5.6875 C 9.28125 -6.144531 9.5625 -6.796875 9.5625 -7.640625 C 9.5625 -8.492188 9.28125 -9.144531 8.71875 -9.59375 C 8.15625 -10.050781 7.34375 -10.28125 6.28125 -10.28125 L 3.4375 -10.28125 L 3.4375 -5 Z M 6.28125 -5 "/></g></g></g><g fill="#ffffff" fill-opacity="1"><g transform="translate(123.276653, 12.582237)"><g><path d="M 10.28125 -1.453125 L 10.28125 0 L 1.765625 0 L 1.765625 -11.734375 L 10.046875 -11.734375 L 10.046875 -10.28125 L 3.4375 -10.28125 L 3.4375 -6.671875 L 9.328125 -6.671875 L 9.328125 -5.25 L 3.4375 -5.25 L 3.4375 -1.453125 Z M 10.28125 -1.453125 "/></g></g></g><g fill="#ffffff" fill-opacity="1"><g transform="translate(138.672115, 12.582237)"><g><path d="M 11.953125 -11.734375 L 6.8125 0 L 5.140625 0 L -0.015625 -11.734375 L 1.796875 -11.734375 L 6.015625 -2.09375 L 10.28125 -11.734375 Z M 11.953125 -11.734375 "/></g></g></g><g fill="#ffffff" fill-opacity="1"><g transform="translate(154.77185, 12.582237)"><g><path d="M 1.90625 0.09375 C 1.59375 0.09375 1.320312 -0.0078125 1.09375 -0.21875 C 0.875 -0.4375 0.765625 -0.71875 0.765625 -1.0625 C 0.765625 -1.382812 0.875 -1.65625 1.09375 -1.875 C 1.320312 -2.09375 1.59375 -2.203125 1.90625 -2.203125 C 2.21875 -2.203125 2.476562 -2.09375 2.6875 -1.875 C 2.90625 -1.664062 3.015625 -1.394531 3.015625 -1.0625 C 3.015625 -0.71875 2.90625 -0.4375 2.6875 -0.21875 C 2.46875 -0.0078125 2.207031 0.09375 1.90625 0.09375 Z M 1.90625 0.09375 "/></g></g></g><g fill="#ffffff" fill-opacity="1"><g transform="translate(162.738835, 12.582237)"><g/></g></g><g fill="#ffffff" fill-opacity="1"><g transform="translate(171.410095, 12.582237)"><g><path d="M 1.765625 -11.734375 L 6.703125 -11.734375 C 7.941406 -11.734375 9.039062 -11.488281 10 -11 C 10.96875 -10.507812 11.71875 -9.816406 12.25 -8.921875 C 12.78125 -8.035156 13.046875 -7.019531 13.046875 -5.875 C 13.046875 -4.71875 12.78125 -3.691406 12.25 -2.796875 C 11.71875 -1.910156 10.96875 -1.222656 10 -0.734375 C 9.039062 -0.242188 7.941406 0 6.703125 0 L 1.765625 0 Z M 6.609375 -1.453125 C 7.554688 -1.453125 8.390625 -1.632812 9.109375 -2 C 9.828125 -2.375 10.378906 -2.894531 10.765625 -3.5625 C 11.160156 -4.226562 11.359375 -5 11.359375 -5.875 C 11.359375 -6.738281 11.160156 -7.503906 10.765625 -8.171875 C 10.378906 -8.835938 9.828125 -9.351562 9.109375 -9.71875 C 8.390625 -10.09375 7.554688 -10.28125 6.609375 -10.28125 L 3.4375 -10.28125 L 3.4375 -1.453125 Z M 6.609375 -1.453125 "/></g></g></g><g fill="#ffffff" fill-opacity="1"><g transform="translate(189.421449, 12.582237)"><g><path d="M 9.609375 0 L 7.078125 -3.609375 C 6.765625 -3.585938 6.519531 -3.578125 6.34375 -3.578125 L 3.4375 -3.578125 L 3.4375 0 L 1.765625 0 L 1.765625 -11.734375 L 6.34375 -11.734375 C 7.863281 -11.734375 9.054688 -11.367188 9.921875 -10.640625 C 10.796875 -9.921875 11.234375 -8.921875 11.234375 -7.640625 C 11.234375 -6.734375 11.007812 -5.960938 10.5625 -5.328125 C 10.113281 -4.691406 9.476562 -4.226562 8.65625 -3.9375 L 11.4375 0 Z M 6.28125 -5 C 7.34375 -5 8.15625 -5.226562 8.71875 -5.6875 C 9.28125 -6.144531 9.5625 -6.796875 9.5625 -7.640625 C 9.5625 -8.492188 9.28125 -9.144531 8.71875 -9.59375 C 8.15625 -10.050781 7.34375 -10.28125 6.28125 -10.28125 L 3.4375 -10.28125 L 3.4375 -5 Z M 6.28125 -5 "/></g></g></g><g fill="#ffffff" fill-opacity="1"><g transform="translate(205.772703, 12.582237)"><g><path d="M 1.90625 0.09375 C 1.59375 0.09375 1.320312 -0.0078125 1.09375 -0.21875 C 0.875 -0.4375 0.765625 -0.71875 0.765625 -1.0625 C 0.765625 -1.382812 0.875 -1.65625 1.09375 -1.875 C 1.320312 -2.09375 1.59375 -2.203125 1.90625 -2.203125 C 2.21875 -2.203125 2.476562 -2.09375 2.6875 -1.875 C 2.90625 -1.664062 3.015625 -1.394531 3.015625 -1.0625 C 3.015625 -0.71875 2.90625 -0.4375 2.6875 -0.21875 C 2.46875 -0.0078125 2.207031 0.09375 1.90625 0.09375 Z M 1.90625 0.09375 "/></g></g></g><g fill="#ffffff" fill-opacity="1"><g transform="translate(13.220439, 35.526315)"><g><path d="M 12.640625 0 L 12.625 -8.546875 L 8.375 -1.421875 L 7.609375 -1.421875 L 3.375 -8.5 L 3.375 0 L 1.765625 0 L 1.765625 -11.734375 L 3.140625 -11.734375 L 8.03125 -3.484375 L 12.859375 -11.734375 L 14.234375 -11.734375 L 14.25 0 Z M 12.640625 0 "/></g></g></g><g fill="#ffffff" fill-opacity="1"><g transform="translate(33.394937, 35.526315)"><g><path d="M 9.234375 -2.9375 L 3 -2.9375 L 1.703125 0 L -0.015625 0 L 5.296875 -11.734375 L 6.953125 -11.734375 L 12.296875 0 L 10.53125 0 Z M 8.65625 -4.28125 L 6.125 -10.03125 L 3.59375 -4.28125 Z M 8.65625 -4.28125 "/></g></g></g><g fill="#ffffff" fill-opacity="1"><g transform="translate(49.830041, 35.526315)"><g><path d="M 6.625 0.140625 C 5.0625 0.140625 3.84375 -0.304688 2.96875 -1.203125 C 2.09375 -2.097656 1.65625 -3.382812 1.65625 -5.0625 L 1.65625 -11.734375 L 3.34375 -11.734375 L 3.34375 -5.125 C 3.34375 -2.613281 4.441406 -1.359375 6.640625 -1.359375 C 7.710938 -1.359375 8.53125 -1.664062 9.09375 -2.28125 C 9.664062 -2.90625 9.953125 -3.851562 9.953125 -5.125 L 9.953125 -11.734375 L 11.578125 -11.734375 L 11.578125 -5.0625 C 11.578125 -3.375 11.140625 -2.082031 10.265625 -1.1875 C 9.398438 -0.300781 8.1875 0.140625 6.625 0.140625 Z M 6.625 0.140625 "/></g></g></g><g fill="#ffffff" fill-opacity="1"><g transform="translate(67.254492, 35.526315)"><g><path d="M 9.609375 0 L 7.078125 -3.609375 C 6.765625 -3.585938 6.519531 -3.578125 6.34375 -3.578125 L 3.4375 -3.578125 L 3.4375 0 L 1.765625 0 L 1.765625 -11.734375 L 6.34375 -11.734375 C 7.863281 -11.734375 9.054688 -11.367188 9.921875 -10.640625 C 10.796875 -9.921875 11.234375 -8.921875 11.234375 -7.640625 C 11.234375 -6.734375 11.007812 -5.960938 10.5625 -5.328125 C 10.113281 -4.691406 9.476562 -4.226562 8.65625 -3.9375 L 11.4375 0 Z M 6.28125 -5 C 7.34375 -5 8.15625 -5.226562 8.71875 -5.6875 C 9.28125 -6.144531 9.5625 -6.796875 9.5625 -7.640625 C 9.5625 -8.492188 9.28125 -9.144531 8.71875 -9.59375 C 8.15625 -10.050781 7.34375 -10.28125 6.28125 -10.28125 L 3.4375 -10.28125 L 3.4375 -5 Z M 6.28125 -5 "/></g></g></g><g fill="#ffffff" fill-opacity="1"><g transform="translate(83.605751, 35.526315)"><g><path d="M 1.765625 -11.734375 L 3.4375 -11.734375 L 3.4375 0 L 1.765625 0 Z M 1.765625 -11.734375 "/></g></g></g><g fill="#ffffff" fill-opacity="1"><g transform="translate(92.96452, 35.526315)"><g><path d="M 7.015625 0.140625 C 5.835938 0.140625 4.773438 -0.117188 3.828125 -0.640625 C 2.890625 -1.160156 2.148438 -1.875 1.609375 -2.78125 C 1.078125 -3.695312 0.8125 -4.726562 0.8125 -5.875 C 0.8125 -7.007812 1.078125 -8.03125 1.609375 -8.9375 C 2.148438 -9.851562 2.894531 -10.570312 3.84375 -11.09375 C 4.789062 -11.613281 5.851562 -11.875 7.03125 -11.875 C 7.945312 -11.875 8.78125 -11.71875 9.53125 -11.40625 C 10.289062 -11.101562 10.941406 -10.648438 11.484375 -10.046875 L 10.390625 -8.984375 C 9.503906 -9.910156 8.40625 -10.375 7.09375 -10.375 C 6.21875 -10.375 5.425781 -10.175781 4.71875 -9.78125 C 4.019531 -9.394531 3.472656 -8.859375 3.078125 -8.171875 C 2.679688 -7.484375 2.484375 -6.71875 2.484375 -5.875 C 2.484375 -5.019531 2.679688 -4.25 3.078125 -3.5625 C 3.472656 -2.875 4.019531 -2.332031 4.71875 -1.9375 C 5.425781 -1.550781 6.21875 -1.359375 7.09375 -1.359375 C 8.394531 -1.359375 9.492188 -1.828125 10.390625 -2.765625 L 11.484375 -1.703125 C 10.941406 -1.109375 10.285156 -0.648438 9.515625 -0.328125 C 8.753906 -0.015625 7.921875 0.140625 7.015625 0.140625 Z M 7.015625 0.140625 "/></g></g></g><g fill="#ffffff" fill-opacity="1"><g transform="translate(109.248713, 35.526315)"><g><path d="M 10.28125 -1.453125 L 10.28125 0 L 1.765625 0 L 1.765625 -11.734375 L 10.046875 -11.734375 L 10.046875 -10.28125 L 3.4375 -10.28125 L 3.4375 -6.671875 L 9.328125 -6.671875 L 9.328125 -5.25 L 3.4375 -5.25 L 3.4375 -1.453125 Z M 10.28125 -1.453125 "/></g></g></g><g fill="#ffffff" fill-opacity="1"><g transform="translate(124.644174, 35.526315)"><g/></g></g><g fill="#ffffff" fill-opacity="1"><g transform="translate(133.315434, 35.526315)"><g><path d="M 10.28125 -1.453125 L 10.28125 0 L 1.765625 0 L 1.765625 -11.734375 L 10.046875 -11.734375 L 10.046875 -10.28125 L 3.4375 -10.28125 L 3.4375 -6.671875 L 9.328125 -6.671875 L 9.328125 -5.25 L 3.4375 -5.25 L 3.4375 -1.453125 Z M 10.28125 -1.453125 "/></g></g></g><g fill="#ffffff" fill-opacity="1"><g transform="translate(148.710895, 35.526315)"><g><path d="M 12.640625 0 L 12.625 -8.546875 L 8.375 -1.421875 L 7.609375 -1.421875 L 3.375 -8.5 L 3.375 0 L 1.765625 0 L 1.765625 -11.734375 L 3.140625 -11.734375 L 8.03125 -3.484375 L 12.859375 -11.734375 L 14.234375 -11.734375 L 14.25 0 Z M 12.640625 0 "/></g></g></g><g fill="#ffffff" fill-opacity="1"><g transform="translate(168.885398, 35.526315)"><g><path d="M 10.28125 -1.453125 L 10.28125 0 L 1.765625 0 L 1.765625 -11.734375 L 10.046875 -11.734375 L 10.046875 -10.28125 L 3.4375 -10.28125 L 3.4375 -6.671875 L 9.328125 -6.671875 L 9.328125 -5.25 L 3.4375 -5.25 L 3.4375 -1.453125 Z M 10.28125 -1.453125 "/></g></g></g><g fill="#ffffff" fill-opacity="1"><g transform="translate(184.28086, 35.526315)"><g><path d="M 1.765625 -11.734375 L 3.4375 -11.734375 L 3.4375 -1.453125 L 9.796875 -1.453125 L 9.796875 0 L 1.765625 0 Z M 1.765625 -11.734375 "/></g></g></g><g fill="#ffffff" fill-opacity="1"><g transform="translate(198.401905, 35.526315)"><g><path d="M 6.625 0.140625 C 5.0625 0.140625 3.84375 -0.304688 2.96875 -1.203125 C 2.09375 -2.097656 1.65625 -3.382812 1.65625 -5.0625 L 1.65625 -11.734375 L 3.34375 -11.734375 L 3.34375 -5.125 C 3.34375 -2.613281 4.441406 -1.359375 6.640625 -1.359375 C 7.710938 -1.359375 8.53125 -1.664062 9.09375 -2.28125 C 9.664062 -2.90625 9.953125 -3.851562 9.953125 -5.125 L 9.953125 -11.734375 L 11.578125 -11.734375 L 11.578125 -5.0625 C 11.578125 -3.375 11.140625 -2.082031 10.265625 -1.1875 C 9.398438 -0.300781 8.1875 0.140625 6.625 0.140625 Z M 6.625 0.140625 "/></g></g></g></svg>