<svg xmlns="http://www.w3.org/2000/svg" xmlns:xlink="http://www.w3.org/1999/xlink" width="280" zoomAndPan="magnify" viewBox="0 0 210 104.999996" height="140" preserveAspectRatio="xMidYMid meet" version="1.0"><defs><g/></defs><rect x="-21" width="252" fill="#ffffff" y="-10.5" height="125.999995" fill-opacity="1"/><rect x="-21" width="252" fill="#ffffff" y="-10.5" height="125.999995" fill-opacity="1"/><rect x="-21" width="252" fill="#ffffff" y="-10.5" height="125.999995" fill-opacity="1"/><path stroke-linecap="butt" transform="matrix(0.746635, 0, 0, 0.75, 4.393251, 64.499994)" fill="none" stroke-linejoin="miter" d="M 0.00171479 10.000009 L 52.241327 10.000009 " stroke="#a7adc1" stroke-width="20" stroke-opacity="1" stroke-miterlimit="4"/><g fill="#ffffff" fill-opacity="1"><g transform="translate(0.000004, 51.413994)"><g><path d="M 35.40625 -8.578125 L 35.40625 0 L 3.921875 0 L 3.921875 -39.21875 L 34.671875 -39.21875 L 34.671875 -30.640625 L 14.90625 -30.640625 L 14.90625 -24.03125 L 32.328125 -24.03125 L 32.328125 -15.734375 L 14.90625 -15.734375 L 14.90625 -8.578125 Z M 35.40625 -8.578125 "/></g></g></g><g fill="#ffffff" fill-opacity="1"><g transform="translate(37.642491, 51.413994)"><g><path d="M 39.328125 0 L 39.21875 -20.78125 L 29.125 -3.859375 L 24.203125 -3.859375 L 14.171875 -20.21875 L 14.171875 0 L 3.921875 0 L 3.921875 -39.21875 L 13.046875 -39.21875 L 26.828125 -16.578125 L 40.28125 -39.21875 L 49.40625 -39.21875 L 49.515625 0 Z M 39.328125 0 "/></g></g></g><g fill="#ffffff" fill-opacity="1"><g transform="translate(91.081383, 51.413994)"><g><path d="M 35.40625 -8.578125 L 35.40625 0 L 3.921875 0 L 3.921875 -39.21875 L 34.671875 -39.21875 L 34.671875 -30.640625 L 14.90625 -30.640625 L 14.90625 -24.03125 L 32.328125 -24.03125 L 32.328125 -15.734375 L 14.90625 -15.734375 L 14.90625 -8.578125 Z M 35.40625 -8.578125 "/></g></g></g><g fill="#ffffff" fill-opacity="1"><g transform="translate(128.723871, 51.413994)"><g><path d="M 3.921875 -39.21875 L 15.015625 -39.21875 L 15.015625 -8.796875 L 33.71875 -8.796875 L 33.71875 0 L 3.921875 0 Z M 3.921875 -39.21875 "/></g></g></g><g fill="#ffffff" fill-opacity="1"><g transform="translate(162.893386, 51.413994)"><g><path d="M 22.015625 0.78125 C 16.191406 0.78125 11.660156 -0.800781 8.421875 -3.96875 C 5.191406 -7.144531 3.578125 -11.648438 3.578125 -17.484375 L 3.578125 -39.21875 L 14.671875 -39.21875 L 14.671875 -17.8125 C 14.671875 -11.539062 17.15625 -8.40625 22.125 -8.40625 C 27.050781 -8.40625 29.515625 -11.539062 29.515625 -17.8125 L 29.515625 -39.21875 L 40.4375 -39.21875 L 40.4375 -17.484375 C 40.4375 -11.648438 38.820312 -7.144531 35.59375 -3.96875 C 32.363281 -0.800781 27.835938 0.78125 22.015625 0.78125 Z M 22.015625 0.78125 "/></g></g></g><g fill="#ffffff" fill-opacity="1"><g transform="translate(50.257548, 88.008398)"><g><path d="M 19 0 L 18.984375 -12.859375 L 12.609375 -2.140625 L 11.4375 -2.140625 L 5.0625 -12.78125 L 5.0625 0 L 2.640625 0 L 2.640625 -17.640625 L 4.71875 -17.640625 L 12.078125 -5.25 L 19.328125 -17.640625 L 21.390625 -17.640625 L 21.421875 0 Z M 19 0 "/></g></g></g><g fill="#ffffff" fill-opacity="1"><g transform="translate(74.330274, 88.008398)"><g><path d="M 13.890625 -4.40625 L 4.515625 -4.40625 L 2.578125 0 L -0.03125 0 L 7.96875 -17.640625 L 10.453125 -17.640625 L 18.46875 0 L 15.828125 0 Z M 13 -6.421875 L 9.203125 -15.078125 L 5.390625 -6.421875 Z M 13 -6.421875 "/></g></g></g><g fill="#ffffff" fill-opacity="1"><g transform="translate(92.781833, 88.008398)"><g><path d="M 9.953125 0.203125 C 7.597656 0.203125 5.765625 -0.46875 4.453125 -1.8125 C 3.148438 -3.15625 2.5 -5.085938 2.5 -7.609375 L 2.5 -17.640625 L 5.015625 -17.640625 L 5.015625 -7.71875 C 5.015625 -3.9375 6.671875 -2.046875 9.984375 -2.046875 C 11.597656 -2.046875 12.832031 -2.507812 13.6875 -3.4375 C 14.539062 -4.375 14.96875 -5.800781 14.96875 -7.71875 L 14.96875 -17.640625 L 17.421875 -17.640625 L 17.421875 -7.609375 C 17.421875 -5.078125 16.765625 -3.140625 15.453125 -1.796875 C 14.140625 -0.460938 12.304688 0.203125 9.953125 0.203125 Z M 9.953125 0.203125 "/></g></g></g><g fill="#ffffff" fill-opacity="1"><g transform="translate(112.720598, 88.008398)"><g><path d="M 14.4375 0 L 10.640625 -5.421875 C 10.171875 -5.390625 9.800781 -5.375 9.53125 -5.375 L 5.171875 -5.375 L 5.171875 0 L 2.640625 0 L 2.640625 -17.640625 L 9.53125 -17.640625 C 11.8125 -17.640625 13.609375 -17.09375 14.921875 -16 C 16.234375 -14.90625 16.890625 -13.40625 16.890625 -11.5 C 16.890625 -10.132812 16.550781 -8.972656 15.875 -8.015625 C 15.207031 -7.054688 14.25 -6.359375 13 -5.921875 L 17.1875 0 Z M 9.453125 -7.515625 C 11.046875 -7.515625 12.257812 -7.859375 13.09375 -8.546875 C 13.9375 -9.234375 14.359375 -10.21875 14.359375 -11.5 C 14.359375 -12.769531 13.9375 -13.742188 13.09375 -14.421875 C 12.257812 -15.109375 11.046875 -15.453125 9.453125 -15.453125 L 5.171875 -15.453125 L 5.171875 -7.515625 Z M 9.453125 -7.515625 "/></g></g></g><g fill="#ffffff" fill-opacity="1"><g transform="translate(131.046112, 88.008398)"><g><path d="M 2.640625 -17.640625 L 5.171875 -17.640625 L 5.171875 0 L 2.640625 0 Z M 2.640625 -17.640625 "/></g></g></g><g fill="#ffffff" fill-opacity="1"><g transform="translate(138.860298, 88.008398)"><g><path d="M 10.53125 0.203125 C 8.769531 0.203125 7.175781 -0.1875 5.75 -0.96875 C 4.332031 -1.75 3.21875 -2.820312 2.40625 -4.1875 C 1.601562 -5.5625 1.203125 -7.109375 1.203125 -8.828125 C 1.203125 -10.535156 1.601562 -12.070312 2.40625 -13.4375 C 3.21875 -14.8125 4.335938 -15.890625 5.765625 -16.671875 C 7.191406 -17.453125 8.789062 -17.84375 10.5625 -17.84375 C 11.9375 -17.84375 13.191406 -17.609375 14.328125 -17.140625 C 15.472656 -16.679688 16.453125 -16 17.265625 -15.09375 L 15.625 -13.515625 C 14.300781 -14.898438 12.644531 -15.59375 10.65625 -15.59375 C 9.34375 -15.59375 8.15625 -15.300781 7.09375 -14.71875 C 6.039062 -14.132812 5.21875 -13.320312 4.625 -12.28125 C 4.03125 -11.25 3.734375 -10.097656 3.734375 -8.828125 C 3.734375 -7.546875 4.03125 -6.390625 4.625 -5.359375 C 5.21875 -4.328125 6.039062 -3.515625 7.09375 -2.921875 C 8.15625 -2.335938 9.34375 -2.046875 10.65625 -2.046875 C 12.625 -2.046875 14.28125 -2.75 15.625 -4.15625 L 17.265625 -2.578125 C 16.453125 -1.660156 15.472656 -0.96875 14.328125 -0.5 C 13.179688 -0.03125 11.914062 0.203125 10.53125 0.203125 Z M 10.53125 0.203125 "/></g></g></g><g fill="#ffffff" fill-opacity="1"><g transform="translate(157.084989, 88.008398)"><g><path d="M 15.453125 -2.1875 L 15.453125 0 L 2.640625 0 L 2.640625 -17.640625 L 15.09375 -17.640625 L 15.09375 -15.453125 L 5.171875 -15.453125 L 5.171875 -10.03125 L 14.015625 -10.03125 L 14.015625 -7.890625 L 5.171875 -7.890625 L 5.171875 -2.1875 Z M 15.453125 -2.1875 "/></g></g></g><g fill="#ffffff" fill-opacity="1"><g transform="translate(173.973709, 88.008398)"><g/></g></g><g fill="#ffffff" fill-opacity="1"><g transform="translate(180.754402, 88.008398)"><g><path d="M 17.8125 -17.640625 L 17.8125 0 L 15.75 0 L 5.171875 -13.15625 L 5.171875 0 L 2.640625 0 L 2.640625 -17.640625 L 4.71875 -17.640625 L 15.296875 -4.484375 L 15.296875 -17.640625 Z M 17.8125 -17.640625 "/></g></g></g><g fill="#ffffff" fill-opacity="1"><g transform="translate(201.222525, 88.008398)"><g><path d="M 2.875 0.15625 C 2.40625 0.15625 2 -0.00390625 1.65625 -0.328125 C 1.320312 -0.660156 1.15625 -1.082031 1.15625 -1.59375 C 1.15625 -2.070312 1.320312 -2.472656 1.65625 -2.796875 C 2 -3.128906 2.40625 -3.296875 2.875 -3.296875 C 3.34375 -3.296875 3.734375 -3.132812 4.046875 -2.8125 C 4.367188 -2.5 4.53125 -2.09375 4.53125 -1.59375 C 4.53125 -1.082031 4.363281 -0.660156 4.03125 -0.328125 C 3.707031 -0.00390625 3.320312 0.15625 2.875 0.15625 Z M 2.875 0.15625 "/></g></g></g><g fill="#ffffff" fill-opacity="1"><g transform="translate(10.500003, 75.749993)"><g><path d="M 6.40625 0 L 4.71875 -2.40625 C 4.507812 -2.394531 4.347656 -2.390625 4.234375 -2.390625 L 2.296875 -2.390625 L 2.296875 0 L 1.171875 0 L 1.171875 -7.828125 L 4.234375 -7.828125 C 5.242188 -7.828125 6.039062 -7.582031 6.625 -7.09375 C 7.207031 -6.613281 7.5 -5.945312 7.5 -5.09375 C 7.5 -4.5 7.347656 -3.988281 7.046875 -3.5625 C 6.742188 -3.132812 6.316406 -2.820312 5.765625 -2.625 L 7.625 0 Z M 4.203125 -3.328125 C 4.910156 -3.328125 5.445312 -3.476562 5.8125 -3.78125 C 6.1875 -4.09375 6.375 -4.53125 6.375 -5.09375 C 6.375 -5.664062 6.1875 -6.101562 5.8125 -6.40625 C 5.445312 -6.707031 4.910156 -6.859375 4.203125 -6.859375 L 2.296875 -6.859375 L 2.296875 -3.328125 Z M 4.203125 -3.328125 "/></g></g></g><g fill="#ffffff" fill-opacity="1"><g transform="translate(18.627585, 75.749993)"><g><path d="M 6.859375 -0.96875 L 6.859375 0 L 1.171875 0 L 1.171875 -7.828125 L 6.703125 -7.828125 L 6.703125 -6.859375 L 2.296875 -6.859375 L 2.296875 -4.453125 L 6.21875 -4.453125 L 6.21875 -3.5 L 2.296875 -3.5 L 2.296875 -0.96875 Z M 6.859375 -0.96875 "/></g></g></g><g fill="#ffffff" fill-opacity="1"><g transform="translate(26.117937, 75.749993)"><g><path d="M 7.984375 -7.828125 L 4.546875 0 L 3.4375 0 L -0.015625 -7.828125 L 1.203125 -7.828125 L 4.015625 -1.40625 L 6.859375 -7.828125 Z M 7.984375 -7.828125 "/></g></g></g><g fill="#ffffff" fill-opacity="1"><g transform="translate(34.077829, 75.749993)"><g><path d="M 1.28125 0.0625 C 1.070312 0.0625 0.890625 -0.0078125 0.734375 -0.15625 C 0.585938 -0.300781 0.515625 -0.484375 0.515625 -0.703125 C 0.515625 -0.921875 0.585938 -1.101562 0.734375 -1.25 C 0.890625 -1.394531 1.070312 -1.46875 1.28125 -1.46875 C 1.488281 -1.46875 1.660156 -1.394531 1.796875 -1.25 C 1.941406 -1.113281 2.015625 -0.929688 2.015625 -0.703125 C 2.015625 -0.484375 1.941406 -0.300781 1.796875 -0.15625 C 1.648438 -0.0078125 1.476562 0.0625 1.28125 0.0625 Z M 1.28125 0.0625 "/></g></g></g><g fill="#ffffff" fill-opacity="1"><g transform="translate(36.609376, 75.749993)"><g/></g></g><g fill="#ffffff" fill-opacity="1"><g transform="translate(39.6167, 75.749993)"><g/></g></g><g fill="#ffffff" fill-opacity="1"><g transform="translate(42.624024, 75.749993)"><g/></g></g><g fill="#ffffff" fill-opacity="1"><g transform="translate(45.631348, 75.749993)"><g/></g></g><path stroke-linecap="butt" transform="matrix(0.746635, 0, 0, 0.75, 4.393251, 79.499993)" fill="none" stroke-linejoin="miter" d="M 0.00171479 10.000011 L 52.241327 10.000011 " stroke="#3d4f73" stroke-width="20" stroke-opacity="1" stroke-miterlimit="4"/><g fill="#ffffff" fill-opacity="1"><g transform="translate(10.500003, 89.549992)"><g><path d="M 1.265625 -8.40625 L 4.796875 -8.40625 C 5.679688 -8.40625 6.46875 -8.226562 7.15625 -7.875 C 7.851562 -7.519531 8.390625 -7.023438 8.765625 -6.390625 C 9.148438 -5.753906 9.34375 -5.023438 9.34375 -4.203125 C 9.34375 -3.378906 9.148438 -2.648438 8.765625 -2.015625 C 8.390625 -1.378906 7.851562 -0.882812 7.15625 -0.53125 C 6.46875 -0.175781 5.679688 0 4.796875 0 L 1.265625 0 Z M 4.734375 -1.046875 C 5.410156 -1.046875 6.003906 -1.175781 6.515625 -1.4375 C 7.035156 -1.707031 7.4375 -2.078125 7.71875 -2.546875 C 8 -3.023438 8.140625 -3.578125 8.140625 -4.203125 C 8.140625 -4.828125 8 -5.375 7.71875 -5.84375 C 7.4375 -6.320312 7.035156 -6.691406 6.515625 -6.953125 C 6.003906 -7.222656 5.410156 -7.359375 4.734375 -7.359375 L 2.453125 -7.359375 L 2.453125 -1.046875 Z M 4.734375 -1.046875 "/></g></g></g><g fill="#ffffff" fill-opacity="1"><g transform="translate(20.412028, 89.549992)"><g><path d="M 6.875 0 L 5.0625 -2.578125 C 4.84375 -2.566406 4.664062 -2.5625 4.53125 -2.5625 L 2.453125 -2.5625 L 2.453125 0 L 1.265625 0 L 1.265625 -8.40625 L 4.53125 -8.40625 C 5.625 -8.40625 6.484375 -8.144531 7.109375 -7.625 C 7.734375 -7.101562 8.046875 -6.382812 8.046875 -5.46875 C 8.046875 -4.820312 7.882812 -4.269531 7.5625 -3.8125 C 7.238281 -3.351562 6.78125 -3.019531 6.1875 -2.8125 L 8.1875 0 Z M 4.5 -3.578125 C 5.257812 -3.578125 5.835938 -3.738281 6.234375 -4.0625 C 6.640625 -4.394531 6.84375 -4.863281 6.84375 -5.46875 C 6.84375 -6.082031 6.640625 -6.550781 6.234375 -6.875 C 5.835938 -7.195312 5.257812 -7.359375 4.5 -7.359375 L 2.453125 -7.359375 L 2.453125 -3.578125 Z M 4.5 -3.578125 "/></g></g></g><g fill="#ffffff" fill-opacity="1"><g transform="translate(29.136041, 89.549992)"><g><path d="M 1.375 0.078125 C 1.144531 0.078125 0.945312 0 0.78125 -0.15625 C 0.625 -0.3125 0.546875 -0.507812 0.546875 -0.75 C 0.546875 -0.988281 0.625 -1.1875 0.78125 -1.34375 C 0.945312 -1.5 1.144531 -1.578125 1.375 -1.578125 C 1.59375 -1.578125 1.773438 -1.5 1.921875 -1.34375 C 2.078125 -1.1875 2.15625 -0.988281 2.15625 -0.75 C 2.15625 -0.507812 2.078125 -0.3125 1.921875 -0.15625 C 1.765625 0 1.582031 0.078125 1.375 0.078125 Z M 1.375 0.078125 "/></g></g></g><g fill="#ffffff" fill-opacity="1"><g transform="translate(31.851564, 89.549992)"><g/></g></g><g fill="#ffffff" fill-opacity="1"><g transform="translate(35.079576, 89.549992)"><g/></g></g></svg>