<svg xmlns="http://www.w3.org/2000/svg" xmlns:xlink="http://www.w3.org/1999/xlink" width="300" zoomAndPan="magnify" viewBox="0 0 224.87999 37.5" height="50" preserveAspectRatio="xMidYMid meet" version="1.0"><defs><g/></defs><g fill="#ffffff" fill-opacity="1"><g transform="translate(3.449484, 13.322362)"><g><path d="M 4.484375 -8.296875 C 5.554688 -8.296875 6.398438 -8.035156 7.015625 -7.515625 C 7.628906 -7.003906 7.9375 -6.300781 7.9375 -5.40625 C 7.9375 -4.5 7.628906 -3.789062 7.015625 -3.28125 C 6.398438 -2.769531 5.554688 -2.515625 4.484375 -2.515625 L 2.421875 -2.515625 L 2.421875 0 L 1.25 0 L 1.25 -8.296875 Z M 4.4375 -3.546875 C 5.1875 -3.546875 5.757812 -3.703125 6.15625 -4.015625 C 6.550781 -4.335938 6.75 -4.800781 6.75 -5.40625 C 6.75 -6 6.550781 -6.457031 6.15625 -6.78125 C 5.757812 -7.101562 5.1875 -7.265625 4.4375 -7.265625 L 2.421875 -7.265625 L 2.421875 -3.546875 Z M 4.4375 -3.546875 "/></g></g></g><g fill="#ffffff" fill-opacity="1"><g transform="translate(14.936357, 13.322362)"><g><path d="M 6.78125 0 L 5 -2.546875 C 4.78125 -2.523438 4.609375 -2.515625 4.484375 -2.515625 L 2.421875 -2.515625 L 2.421875 0 L 1.25 0 L 1.25 -8.296875 L 4.484375 -8.296875 C 5.554688 -8.296875 6.398438 -8.035156 7.015625 -7.515625 C 7.628906 -7.003906 7.9375 -6.300781 7.9375 -5.40625 C 7.9375 -4.757812 7.773438 -4.210938 7.453125 -3.765625 C 7.140625 -3.316406 6.691406 -2.988281 6.109375 -2.78125 L 8.078125 0 Z M 4.4375 -3.53125 C 5.1875 -3.53125 5.757812 -3.691406 6.15625 -4.015625 C 6.550781 -4.335938 6.75 -4.800781 6.75 -5.40625 C 6.75 -6 6.550781 -6.457031 6.15625 -6.78125 C 5.757812 -7.101562 5.1875 -7.265625 4.4375 -7.265625 L 2.421875 -7.265625 L 2.421875 -3.53125 Z M 4.4375 -3.53125 "/></g></g></g><g fill="#ffffff" fill-opacity="1"><g transform="translate(26.482441, 13.322362)"><g><path d="M 4.984375 0.09375 C 4.148438 0.09375 3.394531 -0.0859375 2.71875 -0.453125 C 2.050781 -0.816406 1.523438 -1.320312 1.140625 -1.96875 C 0.753906 -2.625 0.5625 -3.347656 0.5625 -4.140625 C 0.5625 -4.941406 0.753906 -5.664062 1.140625 -6.3125 C 1.523438 -6.957031 2.050781 -7.460938 2.71875 -7.828125 C 3.394531 -8.203125 4.148438 -8.390625 4.984375 -8.390625 C 5.816406 -8.390625 6.566406 -8.203125 7.234375 -7.828125 C 7.910156 -7.460938 8.4375 -6.957031 8.8125 -6.3125 C 9.1875 -5.675781 9.375 -4.953125 9.375 -4.140625 C 9.375 -3.335938 9.1875 -2.613281 8.8125 -1.96875 C 8.4375 -1.320312 7.910156 -0.816406 7.234375 -0.453125 C 6.566406 -0.0859375 5.816406 0.09375 4.984375 0.09375 Z M 4.984375 -0.953125 C 5.585938 -0.953125 6.132812 -1.085938 6.625 -1.359375 C 7.113281 -1.640625 7.5 -2.023438 7.78125 -2.515625 C 8.0625 -3.003906 8.203125 -3.546875 8.203125 -4.140625 C 8.203125 -4.742188 8.0625 -5.285156 7.78125 -5.765625 C 7.5 -6.253906 7.113281 -6.632812 6.625 -6.90625 C 6.132812 -7.1875 5.585938 -7.328125 4.984375 -7.328125 C 4.378906 -7.328125 3.828125 -7.1875 3.328125 -6.90625 C 2.835938 -6.632812 2.453125 -6.253906 2.171875 -5.765625 C 1.890625 -5.285156 1.75 -4.742188 1.75 -4.140625 C 1.75 -3.546875 1.890625 -3.003906 2.171875 -2.515625 C 2.453125 -2.023438 2.835938 -1.640625 3.328125 -1.359375 C 3.828125 -1.085938 4.378906 -0.953125 4.984375 -0.953125 Z M 4.984375 -0.953125 "/></g></g></g><g fill="#ffffff" fill-opacity="1"><g transform="translate(39.366695, 13.322362)"><g><path d="M 2.421875 -7.265625 L 2.421875 -4.375 L 6.578125 -4.375 L 6.578125 -3.359375 L 2.421875 -3.359375 L 2.421875 0 L 1.25 0 L 1.25 -8.296875 L 7.09375 -8.296875 L 7.09375 -7.265625 Z M 2.421875 -7.265625 "/></g></g></g><g fill="#ffffff" fill-opacity="1"><g transform="translate(49.823306, 13.322362)"><g><path d="M 7.265625 -1.03125 L 7.265625 0 L 1.25 0 L 1.25 -8.296875 L 7.09375 -8.296875 L 7.09375 -7.265625 L 2.421875 -7.265625 L 2.421875 -4.71875 L 6.578125 -4.71875 L 6.578125 -3.703125 L 2.421875 -3.703125 L 2.421875 -1.03125 Z M 7.265625 -1.03125 "/></g></g></g><g fill="#ffffff" fill-opacity="1"><g transform="translate(60.694389, 13.322362)"><g><path d="M 3.65625 0.09375 C 3.03125 0.09375 2.425781 0 1.84375 -0.1875 C 1.269531 -0.382812 0.816406 -0.640625 0.484375 -0.953125 L 0.921875 -1.875 C 1.234375 -1.582031 1.632812 -1.347656 2.125 -1.171875 C 2.625 -0.992188 3.132812 -0.90625 3.65625 -0.90625 C 4.34375 -0.90625 4.851562 -1.019531 5.1875 -1.25 C 5.53125 -1.488281 5.703125 -1.800781 5.703125 -2.1875 C 5.703125 -2.476562 5.609375 -2.710938 5.421875 -2.890625 C 5.242188 -3.066406 5.015625 -3.203125 4.734375 -3.296875 C 4.460938 -3.390625 4.082031 -3.492188 3.59375 -3.609375 C 2.96875 -3.765625 2.460938 -3.914062 2.078125 -4.0625 C 1.691406 -4.207031 1.363281 -4.4375 1.09375 -4.75 C 0.820312 -5.0625 0.6875 -5.484375 0.6875 -6.015625 C 0.6875 -6.460938 0.800781 -6.863281 1.03125 -7.21875 C 1.269531 -7.570312 1.625 -7.851562 2.09375 -8.0625 C 2.570312 -8.28125 3.160156 -8.390625 3.859375 -8.390625 C 4.347656 -8.390625 4.828125 -8.320312 5.296875 -8.1875 C 5.773438 -8.0625 6.1875 -7.882812 6.53125 -7.65625 L 6.140625 -6.703125 C 5.785156 -6.921875 5.410156 -7.085938 5.015625 -7.203125 C 4.617188 -7.316406 4.234375 -7.375 3.859375 -7.375 C 3.191406 -7.375 2.6875 -7.25 2.34375 -7 C 2.007812 -6.757812 1.84375 -6.445312 1.84375 -6.0625 C 1.84375 -5.78125 1.9375 -5.550781 2.125 -5.375 C 2.320312 -5.195312 2.554688 -5.054688 2.828125 -4.953125 C 3.109375 -4.859375 3.492188 -4.753906 3.984375 -4.640625 C 4.609375 -4.492188 5.109375 -4.34375 5.484375 -4.1875 C 5.859375 -4.039062 6.179688 -3.8125 6.453125 -3.5 C 6.734375 -3.195312 6.875 -2.785156 6.875 -2.265625 C 6.875 -1.828125 6.753906 -1.425781 6.515625 -1.0625 C 6.273438 -0.707031 5.914062 -0.425781 5.4375 -0.21875 C 4.957031 -0.0078125 4.363281 0.09375 3.65625 0.09375 Z M 3.65625 0.09375 "/></g></g></g><g fill="#ffffff" fill-opacity="1"><g transform="translate(70.985212, 13.322362)"><g><path d="M 3.65625 0.09375 C 3.03125 0.09375 2.425781 0 1.84375 -0.1875 C 1.269531 -0.382812 0.816406 -0.640625 0.484375 -0.953125 L 0.921875 -1.875 C 1.234375 -1.582031 1.632812 -1.347656 2.125 -1.171875 C 2.625 -0.992188 3.132812 -0.90625 3.65625 -0.90625 C 4.34375 -0.90625 4.851562 -1.019531 5.1875 -1.25 C 5.53125 -1.488281 5.703125 -1.800781 5.703125 -2.1875 C 5.703125 -2.476562 5.609375 -2.710938 5.421875 -2.890625 C 5.242188 -3.066406 5.015625 -3.203125 4.734375 -3.296875 C 4.460938 -3.390625 4.082031 -3.492188 3.59375 -3.609375 C 2.96875 -3.765625 2.460938 -3.914062 2.078125 -4.0625 C 1.691406 -4.207031 1.363281 -4.4375 1.09375 -4.75 C 0.820312 -5.0625 0.6875 -5.484375 0.6875 -6.015625 C 0.6875 -6.460938 0.800781 -6.863281 1.03125 -7.21875 C 1.269531 -7.570312 1.625 -7.851562 2.09375 -8.0625 C 2.570312 -8.28125 3.160156 -8.390625 3.859375 -8.390625 C 4.347656 -8.390625 4.828125 -8.320312 5.296875 -8.1875 C 5.773438 -8.0625 6.1875 -7.882812 6.53125 -7.65625 L 6.140625 -6.703125 C 5.785156 -6.921875 5.410156 -7.085938 5.015625 -7.203125 C 4.617188 -7.316406 4.234375 -7.375 3.859375 -7.375 C 3.191406 -7.375 2.6875 -7.25 2.34375 -7 C 2.007812 -6.757812 1.84375 -6.445312 1.84375 -6.0625 C 1.84375 -5.78125 1.9375 -5.550781 2.125 -5.375 C 2.320312 -5.195312 2.554688 -5.054688 2.828125 -4.953125 C 3.109375 -4.859375 3.492188 -4.753906 3.984375 -4.640625 C 4.609375 -4.492188 5.109375 -4.34375 5.484375 -4.1875 C 5.859375 -4.039062 6.179688 -3.8125 6.453125 -3.5 C 6.734375 -3.195312 6.875 -2.785156 6.875 -2.265625 C 6.875 -1.828125 6.753906 -1.425781 6.515625 -1.0625 C 6.273438 -0.707031 5.914062 -0.425781 5.4375 -0.21875 C 4.957031 -0.0078125 4.363281 0.09375 3.65625 0.09375 Z M 3.65625 0.09375 "/></g></g></g><g fill="#ffffff" fill-opacity="1"><g transform="translate(81.276034, 13.322362)"><g><path d="M 1.25 -8.296875 L 2.421875 -8.296875 L 2.421875 0 L 1.25 0 Z M 1.25 -8.296875 "/></g></g></g><g fill="#ffffff" fill-opacity="1"><g transform="translate(87.883952, 13.322362)"><g><path d="M 4.984375 0.09375 C 4.148438 0.09375 3.394531 -0.0859375 2.71875 -0.453125 C 2.050781 -0.816406 1.523438 -1.320312 1.140625 -1.96875 C 0.753906 -2.625 0.5625 -3.347656 0.5625 -4.140625 C 0.5625 -4.941406 0.753906 -5.664062 1.140625 -6.3125 C 1.523438 -6.957031 2.050781 -7.460938 2.71875 -7.828125 C 3.394531 -8.203125 4.148438 -8.390625 4.984375 -8.390625 C 5.816406 -8.390625 6.566406 -8.203125 7.234375 -7.828125 C 7.910156 -7.460938 8.4375 -6.957031 8.8125 -6.3125 C 9.1875 -5.675781 9.375 -4.953125 9.375 -4.140625 C 9.375 -3.335938 9.1875 -2.613281 8.8125 -1.96875 C 8.4375 -1.320312 7.910156 -0.816406 7.234375 -0.453125 C 6.566406 -0.0859375 5.816406 0.09375 4.984375 0.09375 Z M 4.984375 -0.953125 C 5.585938 -0.953125 6.132812 -1.085938 6.625 -1.359375 C 7.113281 -1.640625 7.5 -2.023438 7.78125 -2.515625 C 8.0625 -3.003906 8.203125 -3.546875 8.203125 -4.140625 C 8.203125 -4.742188 8.0625 -5.285156 7.78125 -5.765625 C 7.5 -6.253906 7.113281 -6.632812 6.625 -6.90625 C 6.132812 -7.1875 5.585938 -7.328125 4.984375 -7.328125 C 4.378906 -7.328125 3.828125 -7.1875 3.328125 -6.90625 C 2.835938 -6.632812 2.453125 -6.253906 2.171875 -5.765625 C 1.890625 -5.285156 1.75 -4.742188 1.75 -4.140625 C 1.75 -3.546875 1.890625 -3.003906 2.171875 -2.515625 C 2.453125 -2.023438 2.835938 -1.640625 3.328125 -1.359375 C 3.828125 -1.085938 4.378906 -0.953125 4.984375 -0.953125 Z M 4.984375 -0.953125 "/></g></g></g><g fill="#ffffff" fill-opacity="1"><g transform="translate(100.7682, 13.322362)"><g><path d="M 8.375 -8.296875 L 8.375 0 L 7.40625 0 L 2.421875 -6.1875 L 2.421875 0 L 1.25 0 L 1.25 -8.296875 L 2.21875 -8.296875 L 7.1875 -2.109375 L 7.1875 -8.296875 Z M 8.375 -8.296875 "/></g></g></g><g fill="#ffffff" fill-opacity="1"><g transform="translate(113.32087, 13.322362)"><g><path d="M 6.53125 -2.078125 L 2.125 -2.078125 L 1.203125 0 L -0.015625 0 L 3.75 -8.296875 L 4.921875 -8.296875 L 8.6875 0 L 7.4375 0 Z M 6.109375 -3.015625 L 4.328125 -7.078125 L 2.53125 -3.015625 Z M 6.109375 -3.015625 "/></g></g></g><g fill="#ffffff" fill-opacity="1"><g transform="translate(124.926161, 13.322362)"><g><path d="M 1.25 -8.296875 L 2.421875 -8.296875 L 2.421875 -1.03125 L 6.921875 -1.03125 L 6.921875 0 L 1.25 0 Z M 1.25 -8.296875 "/></g></g></g><g fill="#ffffff" fill-opacity="1"><g transform="translate(134.897236, 13.322362)"><g/></g></g><g fill="#ffffff" fill-opacity="1"><g transform="translate(141.019629, 13.322362)"><g><path d="M 3.65625 0.09375 C 3.03125 0.09375 2.425781 0 1.84375 -0.1875 C 1.269531 -0.382812 0.816406 -0.640625 0.484375 -0.953125 L 0.921875 -1.875 C 1.234375 -1.582031 1.632812 -1.347656 2.125 -1.171875 C 2.625 -0.992188 3.132812 -0.90625 3.65625 -0.90625 C 4.34375 -0.90625 4.851562 -1.019531 5.1875 -1.25 C 5.53125 -1.488281 5.703125 -1.800781 5.703125 -2.1875 C 5.703125 -2.476562 5.609375 -2.710938 5.421875 -2.890625 C 5.242188 -3.066406 5.015625 -3.203125 4.734375 -3.296875 C 4.460938 -3.390625 4.082031 -3.492188 3.59375 -3.609375 C 2.96875 -3.765625 2.460938 -3.914062 2.078125 -4.0625 C 1.691406 -4.207031 1.363281 -4.4375 1.09375 -4.75 C 0.820312 -5.0625 0.6875 -5.484375 0.6875 -6.015625 C 0.6875 -6.460938 0.800781 -6.863281 1.03125 -7.21875 C 1.269531 -7.570312 1.625 -7.851562 2.09375 -8.0625 C 2.570312 -8.28125 3.160156 -8.390625 3.859375 -8.390625 C 4.347656 -8.390625 4.828125 -8.320312 5.296875 -8.1875 C 5.773438 -8.0625 6.1875 -7.882812 6.53125 -7.65625 L 6.140625 -6.703125 C 5.785156 -6.921875 5.410156 -7.085938 5.015625 -7.203125 C 4.617188 -7.316406 4.234375 -7.375 3.859375 -7.375 C 3.191406 -7.375 2.6875 -7.25 2.34375 -7 C 2.007812 -6.757812 1.84375 -6.445312 1.84375 -6.0625 C 1.84375 -5.78125 1.9375 -5.550781 2.125 -5.375 C 2.320312 -5.195312 2.554688 -5.054688 2.828125 -4.953125 C 3.109375 -4.859375 3.492188 -4.753906 3.984375 -4.640625 C 4.609375 -4.492188 5.109375 -4.34375 5.484375 -4.1875 C 5.859375 -4.039062 6.179688 -3.8125 6.453125 -3.5 C 6.734375 -3.195312 6.875 -2.785156 6.875 -2.265625 C 6.875 -1.828125 6.753906 -1.425781 6.515625 -1.0625 C 6.273438 -0.707031 5.914062 -0.425781 5.4375 -0.21875 C 4.957031 -0.0078125 4.363281 0.09375 3.65625 0.09375 Z M 3.65625 0.09375 "/></g></g></g><g fill="#ffffff" fill-opacity="1"><g transform="translate(151.310445, 13.322362)"><g><path d="M 7.265625 -1.03125 L 7.265625 0 L 1.25 0 L 1.25 -8.296875 L 7.09375 -8.296875 L 7.09375 -7.265625 L 2.421875 -7.265625 L 2.421875 -4.71875 L 6.578125 -4.71875 L 6.578125 -3.703125 L 2.421875 -3.703125 L 2.421875 -1.03125 Z M 7.265625 -1.03125 "/></g></g></g><g fill="#ffffff" fill-opacity="1"><g transform="translate(162.181523, 13.322362)"><g><path d="M 6.78125 0 L 5 -2.546875 C 4.78125 -2.523438 4.609375 -2.515625 4.484375 -2.515625 L 2.421875 -2.515625 L 2.421875 0 L 1.25 0 L 1.25 -8.296875 L 4.484375 -8.296875 C 5.554688 -8.296875 6.398438 -8.035156 7.015625 -7.515625 C 7.628906 -7.003906 7.9375 -6.300781 7.9375 -5.40625 C 7.9375 -4.757812 7.773438 -4.210938 7.453125 -3.765625 C 7.140625 -3.316406 6.691406 -2.988281 6.109375 -2.78125 L 8.078125 0 Z M 4.4375 -3.53125 C 5.1875 -3.53125 5.757812 -3.691406 6.15625 -4.015625 C 6.550781 -4.335938 6.75 -4.800781 6.75 -5.40625 C 6.75 -6 6.550781 -6.457031 6.15625 -6.78125 C 5.757812 -7.101562 5.1875 -7.265625 4.4375 -7.265625 L 2.421875 -7.265625 L 2.421875 -3.53125 Z M 4.4375 -3.53125 "/></g></g></g><g fill="#ffffff" fill-opacity="1"><g transform="translate(173.727602, 13.322362)"><g><path d="M 8.4375 -8.296875 L 4.8125 0 L 3.640625 0 L -0.015625 -8.296875 L 1.265625 -8.296875 L 4.25 -1.484375 L 7.265625 -8.296875 Z M 8.4375 -8.296875 "/></g></g></g><g fill="#ffffff" fill-opacity="1"><g transform="translate(185.096057, 13.322362)"><g><path d="M 1.25 -8.296875 L 2.421875 -8.296875 L 2.421875 0 L 1.25 0 Z M 1.25 -8.296875 "/></g></g></g><g fill="#ffffff" fill-opacity="1"><g transform="translate(191.70397, 13.322362)"><g><path d="M 4.953125 0.09375 C 4.117188 0.09375 3.367188 -0.0859375 2.703125 -0.453125 C 2.035156 -0.816406 1.507812 -1.320312 1.125 -1.96875 C 0.75 -2.613281 0.5625 -3.335938 0.5625 -4.140625 C 0.5625 -4.953125 0.75 -5.675781 1.125 -6.3125 C 1.507812 -6.957031 2.035156 -7.460938 2.703125 -7.828125 C 3.378906 -8.203125 4.132812 -8.390625 4.96875 -8.390625 C 5.613281 -8.390625 6.203125 -8.28125 6.734375 -8.0625 C 7.273438 -7.84375 7.734375 -7.519531 8.109375 -7.09375 L 7.34375 -6.34375 C 6.71875 -7 5.941406 -7.328125 5.015625 -7.328125 C 4.398438 -7.328125 3.84375 -7.1875 3.34375 -6.90625 C 2.84375 -6.632812 2.453125 -6.253906 2.171875 -5.765625 C 1.890625 -5.285156 1.75 -4.742188 1.75 -4.140625 C 1.75 -3.546875 1.890625 -3.003906 2.171875 -2.515625 C 2.453125 -2.023438 2.84375 -1.640625 3.34375 -1.359375 C 3.84375 -1.085938 4.398438 -0.953125 5.015625 -0.953125 C 5.929688 -0.953125 6.707031 -1.285156 7.34375 -1.953125 L 8.109375 -1.203125 C 7.734375 -0.773438 7.273438 -0.453125 6.734375 -0.234375 C 6.191406 -0.015625 5.597656 0.09375 4.953125 0.09375 Z M 4.953125 0.09375 "/></g></g></g><g fill="#ffffff" fill-opacity="1"><g transform="translate(203.202695, 13.322362)"><g><path d="M 7.265625 -1.03125 L 7.265625 0 L 1.25 0 L 1.25 -8.296875 L 7.09375 -8.296875 L 7.09375 -7.265625 L 2.421875 -7.265625 L 2.421875 -4.71875 L 6.578125 -4.71875 L 6.578125 -3.703125 L 2.421875 -3.703125 L 2.421875 -1.03125 Z M 7.265625 -1.03125 "/></g></g></g><g fill="#ffffff" fill-opacity="1"><g transform="translate(214.073784, 13.322362)"><g><path d="M 3.65625 0.09375 C 3.03125 0.09375 2.425781 0 1.84375 -0.1875 C 1.269531 -0.382812 0.816406 -0.640625 0.484375 -0.953125 L 0.921875 -1.875 C 1.234375 -1.582031 1.632812 -1.347656 2.125 -1.171875 C 2.625 -0.992188 3.132812 -0.90625 3.65625 -0.90625 C 4.34375 -0.90625 4.851562 -1.019531 5.1875 -1.25 C 5.53125 -1.488281 5.703125 -1.800781 5.703125 -2.1875 C 5.703125 -2.476562 5.609375 -2.710938 5.421875 -2.890625 C 5.242188 -3.066406 5.015625 -3.203125 4.734375 -3.296875 C 4.460938 -3.390625 4.082031 -3.492188 3.59375 -3.609375 C 2.96875 -3.765625 2.460938 -3.914062 2.078125 -4.0625 C 1.691406 -4.207031 1.363281 -4.4375 1.09375 -4.75 C 0.820312 -5.0625 0.6875 -5.484375 0.6875 -6.015625 C 0.6875 -6.460938 0.800781 -6.863281 1.03125 -7.21875 C 1.269531 -7.570312 1.625 -7.851562 2.09375 -8.0625 C 2.570312 -8.28125 3.160156 -8.390625 3.859375 -8.390625 C 4.347656 -8.390625 4.828125 -8.320312 5.296875 -8.1875 C 5.773438 -8.0625 6.1875 -7.882812 6.53125 -7.65625 L 6.140625 -6.703125 C 5.785156 -6.921875 5.410156 -7.085938 5.015625 -7.203125 C 4.617188 -7.316406 4.234375 -7.375 3.859375 -7.375 C 3.191406 -7.375 2.6875 -7.25 2.34375 -7 C 2.007812 -6.757812 1.84375 -6.445312 1.84375 -6.0625 C 1.84375 -5.78125 1.9375 -5.550781 2.125 -5.375 C 2.320312 -5.195312 2.554688 -5.054688 2.828125 -4.953125 C 3.109375 -4.859375 3.492188 -4.753906 3.984375 -4.640625 C 4.609375 -4.492188 5.109375 -4.34375 5.484375 -4.1875 C 5.859375 -4.039062 6.179688 -3.8125 6.453125 -3.5 C 6.734375 -3.195312 6.875 -2.785156 6.875 -2.265625 C 6.875 -1.828125 6.753906 -1.425781 6.515625 -1.0625 C 6.273438 -0.707031 5.914062 -0.425781 5.4375 -0.21875 C 4.957031 -0.0078125 4.363281 0.09375 3.65625 0.09375 Z M 3.65625 0.09375 "/></g></g></g><g fill="#ffffff" fill-opacity="1"><g transform="translate(42.491423, 29.605256)"><g><path d="M 7.3125 0.125 L 6.203125 -0.96875 C 5.472656 -0.257812 4.550781 0.09375 3.4375 0.09375 C 2.882812 0.09375 2.382812 0.00390625 1.9375 -0.171875 C 1.5 -0.359375 1.15625 -0.613281 0.90625 -0.9375 C 0.65625 -1.269531 0.53125 -1.644531 0.53125 -2.0625 C 0.53125 -2.5625 0.6875 -3.003906 1 -3.390625 C 1.3125 -3.785156 1.828125 -4.191406 2.546875 -4.609375 C 2.179688 -4.972656 1.921875 -5.300781 1.765625 -5.59375 C 1.617188 -5.882812 1.546875 -6.1875 1.546875 -6.5 C 1.546875 -7.0625 1.75 -7.507812 2.15625 -7.84375 C 2.5625 -8.1875 3.109375 -8.359375 3.796875 -8.359375 C 4.421875 -8.359375 4.914062 -8.203125 5.28125 -7.890625 C 5.65625 -7.585938 5.84375 -7.164062 5.84375 -6.625 C 5.84375 -6.207031 5.707031 -5.832031 5.4375 -5.5 C 5.164062 -5.175781 4.71875 -4.832031 4.09375 -4.46875 L 6.140625 -2.421875 C 6.367188 -2.878906 6.535156 -3.382812 6.640625 -3.9375 L 7.5625 -3.640625 C 7.414062 -2.910156 7.171875 -2.273438 6.828125 -1.734375 L 7.953125 -0.625 Z M 3.796875 -7.53125 C 3.421875 -7.53125 3.128906 -7.4375 2.921875 -7.25 C 2.710938 -7.0625 2.609375 -6.820312 2.609375 -6.53125 C 2.609375 -6.3125 2.664062 -6.101562 2.78125 -5.90625 C 2.894531 -5.707031 3.117188 -5.441406 3.453125 -5.109375 C 3.992188 -5.410156 4.367188 -5.671875 4.578125 -5.890625 C 4.785156 -6.117188 4.890625 -6.363281 4.890625 -6.625 C 4.890625 -6.894531 4.789062 -7.113281 4.59375 -7.28125 C 4.40625 -7.445312 4.140625 -7.53125 3.796875 -7.53125 Z M 3.5 -0.859375 C 4.320312 -0.859375 5 -1.117188 5.53125 -1.640625 L 3.171875 -3.984375 C 2.609375 -3.660156 2.210938 -3.363281 1.984375 -3.09375 C 1.753906 -2.820312 1.640625 -2.515625 1.640625 -2.171875 C 1.640625 -1.785156 1.8125 -1.46875 2.15625 -1.21875 C 2.5 -0.976562 2.945312 -0.859375 3.5 -0.859375 Z M 3.5 -0.859375 "/></g></g></g><g fill="#ffffff" fill-opacity="1"><g transform="translate(53.551988, 29.605256)"><g/></g></g><g fill="#ffffff" fill-opacity="1"><g transform="translate(59.674386, 29.605256)"><g><path d="M 4.953125 0.09375 C 4.117188 0.09375 3.367188 -0.0859375 2.703125 -0.453125 C 2.035156 -0.816406 1.507812 -1.320312 1.125 -1.96875 C 0.75 -2.613281 0.5625 -3.335938 0.5625 -4.140625 C 0.5625 -4.953125 0.75 -5.675781 1.125 -6.3125 C 1.507812 -6.957031 2.035156 -7.460938 2.703125 -7.828125 C 3.378906 -8.203125 4.132812 -8.390625 4.96875 -8.390625 C 5.613281 -8.390625 6.203125 -8.28125 6.734375 -8.0625 C 7.273438 -7.84375 7.734375 -7.519531 8.109375 -7.09375 L 7.34375 -6.34375 C 6.71875 -7 5.941406 -7.328125 5.015625 -7.328125 C 4.398438 -7.328125 3.84375 -7.1875 3.34375 -6.90625 C 2.84375 -6.632812 2.453125 -6.253906 2.171875 -5.765625 C 1.890625 -5.285156 1.75 -4.742188 1.75 -4.140625 C 1.75 -3.546875 1.890625 -3.003906 2.171875 -2.515625 C 2.453125 -2.023438 2.84375 -1.640625 3.34375 -1.359375 C 3.84375 -1.085938 4.398438 -0.953125 5.015625 -0.953125 C 5.929688 -0.953125 6.707031 -1.285156 7.34375 -1.953125 L 8.109375 -1.203125 C 7.734375 -0.773438 7.273438 -0.453125 6.734375 -0.234375 C 6.191406 -0.015625 5.597656 0.09375 4.953125 0.09375 Z M 4.953125 0.09375 "/></g></g></g><g fill="#ffffff" fill-opacity="1"><g transform="translate(71.173105, 29.605256)"><g><path d="M 4.984375 0.09375 C 4.148438 0.09375 3.394531 -0.0859375 2.71875 -0.453125 C 2.050781 -0.816406 1.523438 -1.320312 1.140625 -1.96875 C 0.753906 -2.625 0.5625 -3.347656 0.5625 -4.140625 C 0.5625 -4.941406 0.753906 -5.664062 1.140625 -6.3125 C 1.523438 -6.957031 2.050781 -7.460938 2.71875 -7.828125 C 3.394531 -8.203125 4.148438 -8.390625 4.984375 -8.390625 C 5.816406 -8.390625 6.566406 -8.203125 7.234375 -7.828125 C 7.910156 -7.460938 8.4375 -6.957031 8.8125 -6.3125 C 9.1875 -5.675781 9.375 -4.953125 9.375 -4.140625 C 9.375 -3.335938 9.1875 -2.613281 8.8125 -1.96875 C 8.4375 -1.320312 7.910156 -0.816406 7.234375 -0.453125 C 6.566406 -0.0859375 5.816406 0.09375 4.984375 0.09375 Z M 4.984375 -0.953125 C 5.585938 -0.953125 6.132812 -1.085938 6.625 -1.359375 C 7.113281 -1.640625 7.5 -2.023438 7.78125 -2.515625 C 8.0625 -3.003906 8.203125 -3.546875 8.203125 -4.140625 C 8.203125 -4.742188 8.0625 -5.285156 7.78125 -5.765625 C 7.5 -6.253906 7.113281 -6.632812 6.625 -6.90625 C 6.132812 -7.1875 5.585938 -7.328125 4.984375 -7.328125 C 4.378906 -7.328125 3.828125 -7.1875 3.328125 -6.90625 C 2.835938 -6.632812 2.453125 -6.253906 2.171875 -5.765625 C 1.890625 -5.285156 1.75 -4.742188 1.75 -4.140625 C 1.75 -3.546875 1.890625 -3.003906 2.171875 -2.515625 C 2.453125 -2.023438 2.835938 -1.640625 3.328125 -1.359375 C 3.828125 -1.085938 4.378906 -0.953125 4.984375 -0.953125 Z M 4.984375 -0.953125 "/></g></g></g><g fill="#ffffff" fill-opacity="1"><g transform="translate(84.057358, 29.605256)"><g><path d="M 8.375 -8.296875 L 8.375 0 L 7.40625 0 L 2.421875 -6.1875 L 2.421875 0 L 1.25 0 L 1.25 -8.296875 L 2.21875 -8.296875 L 7.1875 -2.109375 L 7.1875 -8.296875 Z M 8.375 -8.296875 "/></g></g></g><g fill="#ffffff" fill-opacity="1"><g transform="translate(96.610019, 29.605256)"><g><path d="M 3.65625 0.09375 C 3.03125 0.09375 2.425781 0 1.84375 -0.1875 C 1.269531 -0.382812 0.816406 -0.640625 0.484375 -0.953125 L 0.921875 -1.875 C 1.234375 -1.582031 1.632812 -1.347656 2.125 -1.171875 C 2.625 -0.992188 3.132812 -0.90625 3.65625 -0.90625 C 4.34375 -0.90625 4.851562 -1.019531 5.1875 -1.25 C 5.53125 -1.488281 5.703125 -1.800781 5.703125 -2.1875 C 5.703125 -2.476562 5.609375 -2.710938 5.421875 -2.890625 C 5.242188 -3.066406 5.015625 -3.203125 4.734375 -3.296875 C 4.460938 -3.390625 4.082031 -3.492188 3.59375 -3.609375 C 2.96875 -3.765625 2.460938 -3.914062 2.078125 -4.0625 C 1.691406 -4.207031 1.363281 -4.4375 1.09375 -4.75 C 0.820312 -5.0625 0.6875 -5.484375 0.6875 -6.015625 C 0.6875 -6.460938 0.800781 -6.863281 1.03125 -7.21875 C 1.269531 -7.570312 1.625 -7.851562 2.09375 -8.0625 C 2.570312 -8.28125 3.160156 -8.390625 3.859375 -8.390625 C 4.347656 -8.390625 4.828125 -8.320312 5.296875 -8.1875 C 5.773438 -8.0625 6.1875 -7.882812 6.53125 -7.65625 L 6.140625 -6.703125 C 5.785156 -6.921875 5.410156 -7.085938 5.015625 -7.203125 C 4.617188 -7.316406 4.234375 -7.375 3.859375 -7.375 C 3.191406 -7.375 2.6875 -7.25 2.34375 -7 C 2.007812 -6.757812 1.84375 -6.445312 1.84375 -6.0625 C 1.84375 -5.78125 1.9375 -5.550781 2.125 -5.375 C 2.320312 -5.195312 2.554688 -5.054688 2.828125 -4.953125 C 3.109375 -4.859375 3.492188 -4.753906 3.984375 -4.640625 C 4.609375 -4.492188 5.109375 -4.34375 5.484375 -4.1875 C 5.859375 -4.039062 6.179688 -3.8125 6.453125 -3.5 C 6.734375 -3.195312 6.875 -2.785156 6.875 -2.265625 C 6.875 -1.828125 6.753906 -1.425781 6.515625 -1.0625 C 6.273438 -0.707031 5.914062 -0.425781 5.4375 -0.21875 C 4.957031 -0.0078125 4.363281 0.09375 3.65625 0.09375 Z M 3.65625 0.09375 "/></g></g></g><g fill="#ffffff" fill-opacity="1"><g transform="translate(106.900842, 29.605256)"><g><path d="M 4.671875 0.09375 C 3.566406 0.09375 2.707031 -0.21875 2.09375 -0.84375 C 1.476562 -1.476562 1.171875 -2.390625 1.171875 -3.578125 L 1.171875 -8.296875 L 2.359375 -8.296875 L 2.359375 -3.625 C 2.359375 -1.84375 3.132812 -0.953125 4.6875 -0.953125 C 5.445312 -0.953125 6.023438 -1.171875 6.421875 -1.609375 C 6.828125 -2.054688 7.03125 -2.726562 7.03125 -3.625 L 7.03125 -8.296875 L 8.1875 -8.296875 L 8.1875 -3.578125 C 8.1875 -2.378906 7.878906 -1.46875 7.265625 -0.84375 C 6.648438 -0.21875 5.785156 0.09375 4.671875 0.09375 Z M 4.671875 0.09375 "/></g></g></g><g fill="#ffffff" fill-opacity="1"><g transform="translate(119.204823, 29.605256)"><g><path d="M 1.25 -8.296875 L 2.421875 -8.296875 L 2.421875 -1.03125 L 6.921875 -1.03125 L 6.921875 0 L 1.25 0 Z M 1.25 -8.296875 "/></g></g></g><g fill="#ffffff" fill-opacity="1"><g transform="translate(129.175903, 29.605256)"><g><path d="M 2.890625 -7.265625 L 0.046875 -7.265625 L 0.046875 -8.296875 L 6.90625 -8.296875 L 6.90625 -7.265625 L 4.0625 -7.265625 L 4.0625 0 L 2.890625 0 Z M 2.890625 -7.265625 "/></g></g></g><g fill="#ffffff" fill-opacity="1"><g transform="translate(139.064089, 29.605256)"><g><path d="M 6.53125 -2.078125 L 2.125 -2.078125 L 1.203125 0 L -0.015625 0 L 3.75 -8.296875 L 4.921875 -8.296875 L 8.6875 0 L 7.4375 0 Z M 6.109375 -3.015625 L 4.328125 -7.078125 L 2.53125 -3.015625 Z M 6.109375 -3.015625 "/></g></g></g><g fill="#ffffff" fill-opacity="1"><g transform="translate(150.669381, 29.605256)"><g><path d="M 8.375 -8.296875 L 8.375 0 L 7.40625 0 L 2.421875 -6.1875 L 2.421875 0 L 1.25 0 L 1.25 -8.296875 L 2.21875 -8.296875 L 7.1875 -2.109375 L 7.1875 -8.296875 Z M 8.375 -8.296875 "/></g></g></g><g fill="#ffffff" fill-opacity="1"><g transform="translate(163.222039, 29.605256)"><g><path d="M 4.953125 0.09375 C 4.117188 0.09375 3.367188 -0.0859375 2.703125 -0.453125 C 2.035156 -0.816406 1.507812 -1.320312 1.125 -1.96875 C 0.75 -2.613281 0.5625 -3.335938 0.5625 -4.140625 C 0.5625 -4.953125 0.75 -5.675781 1.125 -6.3125 C 1.507812 -6.957031 2.035156 -7.460938 2.703125 -7.828125 C 3.378906 -8.203125 4.132812 -8.390625 4.96875 -8.390625 C 5.613281 -8.390625 6.203125 -8.28125 6.734375 -8.0625 C 7.273438 -7.84375 7.734375 -7.519531 8.109375 -7.09375 L 7.34375 -6.34375 C 6.71875 -7 5.941406 -7.328125 5.015625 -7.328125 C 4.398438 -7.328125 3.84375 -7.1875 3.34375 -6.90625 C 2.84375 -6.632812 2.453125 -6.253906 2.171875 -5.765625 C 1.890625 -5.285156 1.75 -4.742188 1.75 -4.140625 C 1.75 -3.546875 1.890625 -3.003906 2.171875 -2.515625 C 2.453125 -2.023438 2.84375 -1.640625 3.34375 -1.359375 C 3.84375 -1.085938 4.398438 -0.953125 5.015625 -0.953125 C 5.929688 -0.953125 6.707031 -1.285156 7.34375 -1.953125 L 8.109375 -1.203125 C 7.734375 -0.773438 7.273438 -0.453125 6.734375 -0.234375 C 6.191406 -0.015625 5.597656 0.09375 4.953125 0.09375 Z M 4.953125 0.09375 "/></g></g></g><g fill="#ffffff" fill-opacity="1"><g transform="translate(174.720753, 29.605256)"><g><path d="M 4.421875 -2.859375 L 4.421875 0 L 3.25 0 L 3.25 -2.890625 L -0.046875 -8.296875 L 1.21875 -8.296875 L 3.875 -3.921875 L 6.53125 -8.296875 L 7.703125 -8.296875 Z M 4.421875 -2.859375 "/></g></g></g></svg>