<svg xmlns="http://www.w3.org/2000/svg" xmlns:xlink="http://www.w3.org/1999/xlink" width="300" zoomAndPan="magnify" viewBox="0 0 224.87999 37.5" height="50" preserveAspectRatio="xMidYMid meet" version="1.0"><defs><g></g></defs><g fill="#ffffff" fill-opacity="1"><g transform="translate(35.886968, 24.054276)"><g><path d="M 7.015625 0.140625 C 5.835938 0.140625 4.773438 -0.117188 3.828125 -0.640625 C 2.890625 -1.160156 2.148438 -1.875 1.609375 -2.78125 C 1.078125 -3.695312 0.8125 -4.726562 0.8125 -5.875 C 0.8125 -7.007812 1.078125 -8.03125 1.609375 -8.9375 C 2.148438 -9.851562 2.894531 -10.570312 3.84375 -11.09375 C 4.789062 -11.613281 5.851562 -11.875 7.03125 -11.875 C 7.945312 -11.875 8.78125 -11.71875 9.53125 -11.40625 C 10.289062 -11.101562 10.941406 -10.648438 11.484375 -10.046875 L 10.390625 -8.984375 C 9.503906 -9.910156 8.40625 -10.375 7.09375 -10.375 C 6.21875 -10.375 5.425781 -10.175781 4.71875 -9.78125 C 4.019531 -9.394531 3.472656 -8.859375 3.078125 -8.171875 C 2.679688 -7.484375 2.484375 -6.71875 2.484375 -5.875 C 2.484375 -5.019531 2.679688 -4.25 3.078125 -3.5625 C 3.472656 -2.875 4.019531 -2.332031 4.71875 -1.9375 C 5.425781 -1.550781 6.21875 -1.359375 7.09375 -1.359375 C 8.394531 -1.359375 9.492188 -1.828125 10.390625 -2.765625 L 11.484375 -1.703125 C 10.941406 -1.109375 10.285156 -0.648438 9.515625 -0.328125 C 8.753906 -0.015625 7.921875 0.140625 7.015625 0.140625 Z M 7.015625 0.140625 "></path></g></g></g><g fill="#ffffff" fill-opacity="1"><g transform="translate(52.171156, 24.054276)"><g><path d="M 7.0625 0.140625 C 5.875 0.140625 4.804688 -0.117188 3.859375 -0.640625 C 2.910156 -1.160156 2.164062 -1.878906 1.625 -2.796875 C 1.082031 -3.710938 0.8125 -4.738281 0.8125 -5.875 C 0.8125 -7 1.082031 -8.019531 1.625 -8.9375 C 2.164062 -9.851562 2.910156 -10.570312 3.859375 -11.09375 C 4.804688 -11.613281 5.875 -11.875 7.0625 -11.875 C 8.226562 -11.875 9.285156 -11.613281 10.234375 -11.09375 C 11.191406 -10.570312 11.9375 -9.851562 12.46875 -8.9375 C 13.007812 -8.03125 13.28125 -7.007812 13.28125 -5.875 C 13.28125 -4.726562 13.007812 -3.695312 12.46875 -2.78125 C 11.9375 -1.875 11.191406 -1.160156 10.234375 -0.640625 C 9.285156 -0.117188 8.226562 0.140625 7.0625 0.140625 Z M 7.0625 -1.359375 C 7.914062 -1.359375 8.6875 -1.550781 9.375 -1.9375 C 10.0625 -2.332031 10.601562 -2.875 11 -3.5625 C 11.40625 -4.25 11.609375 -5.019531 11.609375 -5.875 C 11.609375 -6.71875 11.40625 -7.484375 11 -8.171875 C 10.601562 -8.859375 10.0625 -9.394531 9.375 -9.78125 C 8.6875 -10.175781 7.914062 -10.375 7.0625 -10.375 C 6.195312 -10.375 5.414062 -10.175781 4.71875 -9.78125 C 4.019531 -9.394531 3.472656 -8.859375 3.078125 -8.171875 C 2.679688 -7.484375 2.484375 -6.71875 2.484375 -5.875 C 2.484375 -5.019531 2.679688 -4.25 3.078125 -3.5625 C 3.472656 -2.875 4.019531 -2.332031 4.71875 -1.9375 C 5.414062 -1.550781 6.195312 -1.359375 7.0625 -1.359375 Z M 7.0625 -1.359375 "></path></g></g></g><g fill="#ffffff" fill-opacity="1"><g transform="translate(70.417265, 24.054276)"><g><path d="M 11.859375 -11.734375 L 11.859375 0 L 10.484375 0 L 3.4375 -8.75 L 3.4375 0 L 1.765625 0 L 1.765625 -11.734375 L 3.140625 -11.734375 L 10.171875 -2.984375 L 10.171875 -11.734375 Z M 11.859375 -11.734375 "></path></g></g></g><g fill="#ffffff" fill-opacity="1"><g transform="translate(88.193858, 24.054276)"><g><path d="M 4.09375 -10.28125 L 0.0625 -10.28125 L 0.0625 -11.734375 L 9.78125 -11.734375 L 9.78125 -10.28125 L 5.75 -10.28125 L 5.75 0 L 4.09375 0 Z M 4.09375 -10.28125 "></path></g></g></g><g fill="#ffffff" fill-opacity="1"><g transform="translate(102.197524, 24.054276)"><g><path d="M 9.234375 -2.9375 L 3 -2.9375 L 1.703125 0 L -0.015625 0 L 5.296875 -11.734375 L 6.953125 -11.734375 L 12.296875 0 L 10.53125 0 Z M 8.65625 -4.28125 L 6.125 -10.03125 L 3.59375 -4.28125 Z M 8.65625 -4.28125 "></path></g></g></g><g fill="#ffffff" fill-opacity="1"><g transform="translate(118.632626, 24.054276)"><g><path d="M 7.015625 0.140625 C 5.835938 0.140625 4.773438 -0.117188 3.828125 -0.640625 C 2.890625 -1.160156 2.148438 -1.875 1.609375 -2.78125 C 1.078125 -3.695312 0.8125 -4.726562 0.8125 -5.875 C 0.8125 -7.007812 1.078125 -8.03125 1.609375 -8.9375 C 2.148438 -9.851562 2.894531 -10.570312 3.84375 -11.09375 C 4.789062 -11.613281 5.851562 -11.875 7.03125 -11.875 C 7.945312 -11.875 8.78125 -11.71875 9.53125 -11.40625 C 10.289062 -11.101562 10.941406 -10.648438 11.484375 -10.046875 L 10.390625 -8.984375 C 9.503906 -9.910156 8.40625 -10.375 7.09375 -10.375 C 6.21875 -10.375 5.425781 -10.175781 4.71875 -9.78125 C 4.019531 -9.394531 3.472656 -8.859375 3.078125 -8.171875 C 2.679688 -7.484375 2.484375 -6.71875 2.484375 -5.875 C 2.484375 -5.019531 2.679688 -4.25 3.078125 -3.5625 C 3.472656 -2.875 4.019531 -2.332031 4.71875 -1.9375 C 5.425781 -1.550781 6.21875 -1.359375 7.09375 -1.359375 C 8.394531 -1.359375 9.492188 -1.828125 10.390625 -2.765625 L 11.484375 -1.703125 C 10.941406 -1.109375 10.285156 -0.648438 9.515625 -0.328125 C 8.753906 -0.015625 7.921875 0.140625 7.015625 0.140625 Z M 7.015625 0.140625 "></path></g></g></g><g fill="#ffffff" fill-opacity="1"><g transform="translate(134.916819, 24.054276)"><g><path d="M 4.09375 -10.28125 L 0.0625 -10.28125 L 0.0625 -11.734375 L 9.78125 -11.734375 L 9.78125 -10.28125 L 5.75 -10.28125 L 5.75 0 L 4.09375 0 Z M 4.09375 -10.28125 "></path></g></g></g><g fill="#ffffff" fill-opacity="1"><g transform="translate(148.92049, 24.054276)"><g></g></g></g><g fill="#ffffff" fill-opacity="1"><g transform="translate(157.59175, 24.054276)"><g><path d="M 12.640625 0 L 12.625 -8.546875 L 8.375 -1.421875 L 7.609375 -1.421875 L 3.375 -8.5 L 3.375 0 L 1.765625 0 L 1.765625 -11.734375 L 3.140625 -11.734375 L 8.03125 -3.484375 L 12.859375 -11.734375 L 14.234375 -11.734375 L 14.25 0 Z M 12.640625 0 "></path></g></g></g><g fill="#ffffff" fill-opacity="1"><g transform="translate(177.766253, 24.054276)"><g><path d="M 10.28125 -1.453125 L 10.28125 0 L 1.765625 0 L 1.765625 -11.734375 L 10.046875 -11.734375 L 10.046875 -10.28125 L 3.4375 -10.28125 L 3.4375 -6.671875 L 9.328125 -6.671875 L 9.328125 -5.25 L 3.4375 -5.25 L 3.4375 -1.453125 Z M 10.28125 -1.453125 "></path></g></g></g></svg>