<svg xmlns="http://www.w3.org/2000/svg" xmlns:xlink="http://www.w3.org/1999/xlink" width="300" zoomAndPan="magnify" viewBox="0 0 224.87999 37.5" height="50" preserveAspectRatio="xMidYMid meet" version="1.0"><defs><g></g></defs><g fill="#ffffff" fill-opacity="1"><g transform="translate(2.464986, 24.054276)"><g><path d="M 7.015625 0.140625 C 5.835938 0.140625 4.773438 -0.117188 3.828125 -0.640625 C 2.890625 -1.160156 2.148438 -1.875 1.609375 -2.78125 C 1.078125 -3.695312 0.8125 -4.726562 0.8125 -5.875 C 0.8125 -7.007812 1.078125 -8.03125 1.609375 -8.9375 C 2.148438 -9.851562 2.894531 -10.570312 3.84375 -11.09375 C 4.789062 -11.613281 5.851562 -11.875 7.03125 -11.875 C 7.945312 -11.875 8.78125 -11.71875 9.53125 -11.40625 C 10.289062 -11.101562 10.941406 -10.648438 11.484375 -10.046875 L 10.390625 -8.984375 C 9.503906 -9.910156 8.40625 -10.375 7.09375 -10.375 C 6.21875 -10.375 5.425781 -10.175781 4.71875 -9.78125 C 4.019531 -9.394531 3.472656 -8.859375 3.078125 -8.171875 C 2.679688 -7.484375 2.484375 -6.71875 2.484375 -5.875 C 2.484375 -5.019531 2.679688 -4.25 3.078125 -3.5625 C 3.472656 -2.875 4.019531 -2.332031 4.71875 -1.9375 C 5.425781 -1.550781 6.21875 -1.359375 7.09375 -1.359375 C 8.394531 -1.359375 9.492188 -1.828125 10.390625 -2.765625 L 11.484375 -1.703125 C 10.941406 -1.109375 10.285156 -0.648438 9.515625 -0.328125 C 8.753906 -0.015625 7.921875 0.140625 7.015625 0.140625 Z M 7.015625 0.140625 "></path></g></g></g><g fill="#ffffff" fill-opacity="1"><g transform="translate(18.749175, 24.054276)"><g><path d="M 7.0625 0.140625 C 5.875 0.140625 4.804688 -0.117188 3.859375 -0.640625 C 2.910156 -1.160156 2.164062 -1.878906 1.625 -2.796875 C 1.082031 -3.710938 0.8125 -4.738281 0.8125 -5.875 C 0.8125 -7 1.082031 -8.019531 1.625 -8.9375 C 2.164062 -9.851562 2.910156 -10.570312 3.859375 -11.09375 C 4.804688 -11.613281 5.875 -11.875 7.0625 -11.875 C 8.226562 -11.875 9.285156 -11.613281 10.234375 -11.09375 C 11.191406 -10.570312 11.9375 -9.851562 12.46875 -8.9375 C 13.007812 -8.03125 13.28125 -7.007812 13.28125 -5.875 C 13.28125 -4.726562 13.007812 -3.695312 12.46875 -2.78125 C 11.9375 -1.875 11.191406 -1.160156 10.234375 -0.640625 C 9.285156 -0.117188 8.226562 0.140625 7.0625 0.140625 Z M 7.0625 -1.359375 C 7.914062 -1.359375 8.6875 -1.550781 9.375 -1.9375 C 10.0625 -2.332031 10.601562 -2.875 11 -3.5625 C 11.40625 -4.25 11.609375 -5.019531 11.609375 -5.875 C 11.609375 -6.71875 11.40625 -7.484375 11 -8.171875 C 10.601562 -8.859375 10.0625 -9.394531 9.375 -9.78125 C 8.6875 -10.175781 7.914062 -10.375 7.0625 -10.375 C 6.195312 -10.375 5.414062 -10.175781 4.71875 -9.78125 C 4.019531 -9.394531 3.472656 -8.859375 3.078125 -8.171875 C 2.679688 -7.484375 2.484375 -6.71875 2.484375 -5.875 C 2.484375 -5.019531 2.679688 -4.25 3.078125 -3.5625 C 3.472656 -2.875 4.019531 -2.332031 4.71875 -1.9375 C 5.414062 -1.550781 6.195312 -1.359375 7.0625 -1.359375 Z M 7.0625 -1.359375 "></path></g></g></g><g fill="#ffffff" fill-opacity="1"><g transform="translate(36.995283, 24.054276)"><g><path d="M 6.625 0.140625 C 5.0625 0.140625 3.84375 -0.304688 2.96875 -1.203125 C 2.09375 -2.097656 1.65625 -3.382812 1.65625 -5.0625 L 1.65625 -11.734375 L 3.34375 -11.734375 L 3.34375 -5.125 C 3.34375 -2.613281 4.441406 -1.359375 6.640625 -1.359375 C 7.710938 -1.359375 8.53125 -1.664062 9.09375 -2.28125 C 9.664062 -2.90625 9.953125 -3.851562 9.953125 -5.125 L 9.953125 -11.734375 L 11.578125 -11.734375 L 11.578125 -5.0625 C 11.578125 -3.375 11.140625 -2.082031 10.265625 -1.1875 C 9.398438 -0.300781 8.1875 0.140625 6.625 0.140625 Z M 6.625 0.140625 "></path></g></g></g><g fill="#ffffff" fill-opacity="1"><g transform="translate(54.419734, 24.054276)"><g><path d="M 9.609375 0 L 7.078125 -3.609375 C 6.765625 -3.585938 6.519531 -3.578125 6.34375 -3.578125 L 3.4375 -3.578125 L 3.4375 0 L 1.765625 0 L 1.765625 -11.734375 L 6.34375 -11.734375 C 7.863281 -11.734375 9.054688 -11.367188 9.921875 -10.640625 C 10.796875 -9.921875 11.234375 -8.921875 11.234375 -7.640625 C 11.234375 -6.734375 11.007812 -5.960938 10.5625 -5.328125 C 10.113281 -4.691406 9.476562 -4.226562 8.65625 -3.9375 L 11.4375 0 Z M 6.28125 -5 C 7.34375 -5 8.15625 -5.226562 8.71875 -5.6875 C 9.28125 -6.144531 9.5625 -6.796875 9.5625 -7.640625 C 9.5625 -8.492188 9.28125 -9.144531 8.71875 -9.59375 C 8.15625 -10.050781 7.34375 -10.28125 6.28125 -10.28125 L 3.4375 -10.28125 L 3.4375 -5 Z M 6.28125 -5 "></path></g></g></g><g fill="#ffffff" fill-opacity="1"><g transform="translate(70.770993, 24.054276)"><g><path d="M 5.1875 0.140625 C 4.300781 0.140625 3.445312 0.00390625 2.625 -0.265625 C 1.800781 -0.546875 1.15625 -0.90625 0.6875 -1.34375 L 1.3125 -2.65625 C 1.757812 -2.25 2.332031 -1.921875 3.03125 -1.671875 C 3.726562 -1.421875 4.445312 -1.296875 5.1875 -1.296875 C 6.15625 -1.296875 6.878906 -1.457031 7.359375 -1.78125 C 7.835938 -2.113281 8.078125 -2.554688 8.078125 -3.109375 C 8.078125 -3.503906 7.945312 -3.828125 7.6875 -4.078125 C 7.425781 -4.328125 7.101562 -4.519531 6.71875 -4.65625 C 6.332031 -4.789062 5.785156 -4.941406 5.078125 -5.109375 C 4.191406 -5.328125 3.476562 -5.539062 2.9375 -5.75 C 2.394531 -5.957031 1.929688 -6.28125 1.546875 -6.71875 C 1.160156 -7.164062 0.96875 -7.765625 0.96875 -8.515625 C 0.96875 -9.140625 1.132812 -9.703125 1.46875 -10.203125 C 1.800781 -10.710938 2.300781 -11.117188 2.96875 -11.421875 C 3.632812 -11.722656 4.46875 -11.875 5.46875 -11.875 C 6.15625 -11.875 6.832031 -11.78125 7.5 -11.59375 C 8.175781 -11.414062 8.753906 -11.160156 9.234375 -10.828125 L 8.6875 -9.484375 C 8.195312 -9.796875 7.671875 -10.03125 7.109375 -10.1875 C 6.546875 -10.351562 6 -10.4375 5.46875 -10.4375 C 4.519531 -10.4375 3.804688 -10.265625 3.328125 -9.921875 C 2.847656 -9.578125 2.609375 -9.128906 2.609375 -8.578125 C 2.609375 -8.179688 2.742188 -7.851562 3.015625 -7.59375 C 3.285156 -7.34375 3.617188 -7.148438 4.015625 -7.015625 C 4.410156 -6.878906 4.953125 -6.734375 5.640625 -6.578125 C 6.515625 -6.359375 7.21875 -6.140625 7.75 -5.921875 C 8.289062 -5.710938 8.753906 -5.390625 9.140625 -4.953125 C 9.523438 -4.523438 9.71875 -3.941406 9.71875 -3.203125 C 9.71875 -2.585938 9.550781 -2.023438 9.21875 -1.515625 C 8.882812 -1.003906 8.375 -0.597656 7.6875 -0.296875 C 7.007812 -0.00390625 6.175781 0.140625 5.1875 0.140625 Z M 5.1875 0.140625 "></path></g></g></g><g fill="#ffffff" fill-opacity="1"><g transform="translate(85.34479, 24.054276)"><g><path d="M 10.28125 -1.453125 L 10.28125 0 L 1.765625 0 L 1.765625 -11.734375 L 10.046875 -11.734375 L 10.046875 -10.28125 L 3.4375 -10.28125 L 3.4375 -6.671875 L 9.328125 -6.671875 L 9.328125 -5.25 L 3.4375 -5.25 L 3.4375 -1.453125 Z M 10.28125 -1.453125 "></path></g></g></g><g fill="#ffffff" fill-opacity="1"><g transform="translate(100.740251, 24.054276)"><g><path d="M 5.1875 0.140625 C 4.300781 0.140625 3.445312 0.00390625 2.625 -0.265625 C 1.800781 -0.546875 1.15625 -0.90625 0.6875 -1.34375 L 1.3125 -2.65625 C 1.757812 -2.25 2.332031 -1.921875 3.03125 -1.671875 C 3.726562 -1.421875 4.445312 -1.296875 5.1875 -1.296875 C 6.15625 -1.296875 6.878906 -1.457031 7.359375 -1.78125 C 7.835938 -2.113281 8.078125 -2.554688 8.078125 -3.109375 C 8.078125 -3.503906 7.945312 -3.828125 7.6875 -4.078125 C 7.425781 -4.328125 7.101562 -4.519531 6.71875 -4.65625 C 6.332031 -4.789062 5.785156 -4.941406 5.078125 -5.109375 C 4.191406 -5.328125 3.476562 -5.539062 2.9375 -5.75 C 2.394531 -5.957031 1.929688 -6.28125 1.546875 -6.71875 C 1.160156 -7.164062 0.96875 -7.765625 0.96875 -8.515625 C 0.96875 -9.140625 1.132812 -9.703125 1.46875 -10.203125 C 1.800781 -10.710938 2.300781 -11.117188 2.96875 -11.421875 C 3.632812 -11.722656 4.46875 -11.875 5.46875 -11.875 C 6.15625 -11.875 6.832031 -11.78125 7.5 -11.59375 C 8.175781 -11.414062 8.753906 -11.160156 9.234375 -10.828125 L 8.6875 -9.484375 C 8.195312 -9.796875 7.671875 -10.03125 7.109375 -10.1875 C 6.546875 -10.351562 6 -10.4375 5.46875 -10.4375 C 4.519531 -10.4375 3.804688 -10.265625 3.328125 -9.921875 C 2.847656 -9.578125 2.609375 -9.128906 2.609375 -8.578125 C 2.609375 -8.179688 2.742188 -7.851562 3.015625 -7.59375 C 3.285156 -7.34375 3.617188 -7.148438 4.015625 -7.015625 C 4.410156 -6.878906 4.953125 -6.734375 5.640625 -6.578125 C 6.515625 -6.359375 7.21875 -6.140625 7.75 -5.921875 C 8.289062 -5.710938 8.753906 -5.390625 9.140625 -4.953125 C 9.523438 -4.523438 9.71875 -3.941406 9.71875 -3.203125 C 9.71875 -2.585938 9.550781 -2.023438 9.21875 -1.515625 C 8.882812 -1.003906 8.375 -0.597656 7.6875 -0.296875 C 7.007812 -0.00390625 6.175781 0.140625 5.1875 0.140625 Z M 5.1875 0.140625 "></path></g></g></g><g fill="#ffffff" fill-opacity="1"><g transform="translate(115.314053, 24.054276)"><g></g></g></g><g fill="#ffffff" fill-opacity="1"><g transform="translate(123.985312, 24.054276)"><g><path d="M 1.765625 -11.734375 L 3.4375 -11.734375 L 3.4375 0 L 1.765625 0 Z M 1.765625 -11.734375 "></path></g></g></g><g fill="#ffffff" fill-opacity="1"><g transform="translate(133.344087, 24.054276)"><g></g></g></g><g fill="#ffffff" fill-opacity="1"><g transform="translate(142.015346, 24.054276)"><g><path d="M 4.09375 -10.28125 L 0.0625 -10.28125 L 0.0625 -11.734375 L 9.78125 -11.734375 L 9.78125 -10.28125 L 5.75 -10.28125 L 5.75 0 L 4.09375 0 Z M 4.09375 -10.28125 "></path></g></g></g><g fill="#ffffff" fill-opacity="1"><g transform="translate(156.019018, 24.054276)"><g><path d="M 10.28125 -1.453125 L 10.28125 0 L 1.765625 0 L 1.765625 -11.734375 L 10.046875 -11.734375 L 10.046875 -10.28125 L 3.4375 -10.28125 L 3.4375 -6.671875 L 9.328125 -6.671875 L 9.328125 -5.25 L 3.4375 -5.25 L 3.4375 -1.453125 Z M 10.28125 -1.453125 "></path></g></g></g><g fill="#ffffff" fill-opacity="1"><g transform="translate(171.414479, 24.054276)"><g><path d="M 9.234375 -2.9375 L 3 -2.9375 L 1.703125 0 L -0.015625 0 L 5.296875 -11.734375 L 6.953125 -11.734375 L 12.296875 0 L 10.53125 0 Z M 8.65625 -4.28125 L 6.125 -10.03125 L 3.59375 -4.28125 Z M 8.65625 -4.28125 "></path></g></g></g><g fill="#ffffff" fill-opacity="1"><g transform="translate(187.849588, 24.054276)"><g><path d="M 7.015625 0.140625 C 5.835938 0.140625 4.773438 -0.117188 3.828125 -0.640625 C 2.890625 -1.160156 2.148438 -1.875 1.609375 -2.78125 C 1.078125 -3.695312 0.8125 -4.726562 0.8125 -5.875 C 0.8125 -7.007812 1.078125 -8.03125 1.609375 -8.9375 C 2.148438 -9.851562 2.894531 -10.570312 3.84375 -11.09375 C 4.789062 -11.613281 5.851562 -11.875 7.03125 -11.875 C 7.945312 -11.875 8.78125 -11.71875 9.53125 -11.40625 C 10.289062 -11.101562 10.941406 -10.648438 11.484375 -10.046875 L 10.390625 -8.984375 C 9.503906 -9.910156 8.40625 -10.375 7.09375 -10.375 C 6.21875 -10.375 5.425781 -10.175781 4.71875 -9.78125 C 4.019531 -9.394531 3.472656 -8.859375 3.078125 -8.171875 C 2.679688 -7.484375 2.484375 -6.71875 2.484375 -5.875 C 2.484375 -5.019531 2.679688 -4.25 3.078125 -3.5625 C 3.472656 -2.875 4.019531 -2.332031 4.71875 -1.9375 C 5.425781 -1.550781 6.21875 -1.359375 7.09375 -1.359375 C 8.394531 -1.359375 9.492188 -1.828125 10.390625 -2.765625 L 11.484375 -1.703125 C 10.941406 -1.109375 10.285156 -0.648438 9.515625 -0.328125 C 8.753906 -0.015625 7.921875 0.140625 7.015625 0.140625 Z M 7.015625 0.140625 "></path></g></g></g><g fill="#ffffff" fill-opacity="1"><g transform="translate(204.133781, 24.054276)"><g><path d="M 11.859375 -11.734375 L 11.859375 0 L 10.171875 0 L 10.171875 -5.234375 L 3.4375 -5.234375 L 3.4375 0 L 1.765625 0 L 1.765625 -11.734375 L 3.4375 -11.734375 L 3.4375 -6.6875 L 10.171875 -6.6875 L 10.171875 -11.734375 Z M 11.859375 -11.734375 "></path></g></g></g></svg>