<svg xmlns="http://www.w3.org/2000/svg" xmlns:xlink="http://www.w3.org/1999/xlink" width="300" zoomAndPan="magnify" viewBox="0 0 224.87999 112.499997" height="150" preserveAspectRatio="xMidYMid meet" version="1.0"><defs><g></g><clipPath id="1c193942ca"><path d="M 0.4375 0 L 224.324219 0 L 224.324219 112.003906 L 0.4375 112.003906 Z M 0.4375 0 " clip-rule="nonzero"></path></clipPath></defs><g clip-path="url('#1c193942ca')"><path fill="#ffffff" d="M 0.4375 0 L 224.441406 0 L 224.441406 119.46875 L 0.4375 119.46875 Z M 0.4375 0 " fill-opacity="1" fill-rule="nonzero"></path><path fill="#ffffff" d="M 0.4375 0 L 224.441406 0 L 224.441406 112.003906 L 0.4375 112.003906 Z M 0.4375 0 " fill-opacity="1" fill-rule="nonzero"></path><path fill="#ffffff" d="M 0.4375 0 L 224.441406 0 L 224.441406 112.003906 L 0.4375 112.003906 Z M 0.4375 0 " fill-opacity="1" fill-rule="nonzero"></path></g><g fill="#3d4f73" fill-opacity="1"><g transform="translate(1.120411, 45.255107)"><g><path d="M 1.671875 -16.71875 L 9.578125 -16.71875 C 11.410156 -16.71875 13.035156 -16.375 14.453125 -15.6875 C 15.867188 -15.007812 16.96875 -14.039062 17.75 -12.78125 C 18.53125 -11.519531 18.921875 -10.046875 18.921875 -8.359375 C 18.921875 -6.671875 18.53125 -5.195312 17.75 -3.9375 C 16.96875 -2.675781 15.867188 -1.703125 14.453125 -1.015625 C 13.035156 -0.335938 11.410156 0 9.578125 0 L 1.671875 0 Z M 9.390625 -3.78125 C 10.828125 -3.78125 11.976562 -4.1875 12.84375 -5 C 13.707031 -5.8125 14.140625 -6.929688 14.140625 -8.359375 C 14.140625 -9.796875 13.707031 -10.921875 12.84375 -11.734375 C 11.976562 -12.546875 10.828125 -12.953125 9.390625 -12.953125 L 6.40625 -12.953125 L 6.40625 -3.78125 Z M 9.390625 -3.78125 "></path></g></g></g><g fill="#3d4f73" fill-opacity="1"><g transform="translate(22.92576, 45.255107)"><g><path d="M 12.875 -3.25 L 5.8125 -3.25 L 4.484375 0 L -0.328125 0 L 7.046875 -16.71875 L 11.703125 -16.71875 L 19.109375 0 L 14.1875 0 Z M 11.484375 -6.734375 L 9.34375 -12.09375 L 7.1875 -6.734375 Z M 11.484375 -6.734375 "></path></g></g></g><g fill="#3d4f73" fill-opacity="1"><g transform="translate(43.775826, 45.255107)"><g><path d="M 5.234375 -12.96875 L 0.09375 -12.96875 L 0.09375 -16.71875 L 15.078125 -16.71875 L 15.078125 -12.96875 L 9.96875 -12.96875 L 9.96875 0 L 5.234375 0 Z M 5.234375 -12.96875 "></path></g></g></g><g fill="#3d4f73" fill-opacity="1"><g transform="translate(61.019692, 45.255107)"><g><path d="M 12.875 -3.25 L 5.8125 -3.25 L 4.484375 0 L -0.328125 0 L 7.046875 -16.71875 L 11.703125 -16.71875 L 19.109375 0 L 14.1875 0 Z M 11.484375 -6.734375 L 9.34375 -12.09375 L 7.1875 -6.734375 Z M 11.484375 -6.734375 "></path></g></g></g><g fill="#3d4f73" fill-opacity="1"><g transform="translate(81.869757, 45.255107)"><g><path d="M 1.140625 -8.546875 L 8.125 -8.546875 L 8.125 -5.0625 L 1.140625 -5.0625 Z M 1.140625 -8.546875 "></path></g></g></g><g fill="#3d4f73" fill-opacity="1"><g transform="translate(93.214754, 45.255107)"><g><path d="M 1.671875 -16.71875 L 9.578125 -16.71875 C 11.410156 -16.71875 13.035156 -16.375 14.453125 -15.6875 C 15.867188 -15.007812 16.96875 -14.039062 17.75 -12.78125 C 18.53125 -11.519531 18.921875 -10.046875 18.921875 -8.359375 C 18.921875 -6.671875 18.53125 -5.195312 17.75 -3.9375 C 16.96875 -2.675781 15.867188 -1.703125 14.453125 -1.015625 C 13.035156 -0.335938 11.410156 0 9.578125 0 L 1.671875 0 Z M 9.390625 -3.78125 C 10.828125 -3.78125 11.976562 -4.1875 12.84375 -5 C 13.707031 -5.8125 14.140625 -6.929688 14.140625 -8.359375 C 14.140625 -9.796875 13.707031 -10.921875 12.84375 -11.734375 C 11.976562 -12.546875 10.828125 -12.953125 9.390625 -12.953125 L 6.40625 -12.953125 L 6.40625 -3.78125 Z M 9.390625 -3.78125 "></path></g></g></g><g fill="#3d4f73" fill-opacity="1"><g transform="translate(115.020103, 45.255107)"><g><path d="M 8.984375 -4.4375 L 6.40625 -4.4375 L 6.40625 0 L 1.671875 0 L 1.671875 -16.71875 L 9.3125 -16.71875 C 10.832031 -16.71875 12.148438 -16.46875 13.265625 -15.96875 C 14.378906 -15.46875 15.238281 -14.75 15.84375 -13.8125 C 16.445312 -12.882812 16.75 -11.789062 16.75 -10.53125 C 16.75 -9.320312 16.460938 -8.265625 15.890625 -7.359375 C 15.328125 -6.460938 14.519531 -5.757812 13.46875 -5.25 L 17.078125 0 L 12.015625 0 Z M 11.96875 -10.53125 C 11.96875 -11.3125 11.71875 -11.914062 11.21875 -12.34375 C 10.726562 -12.78125 10 -13 9.03125 -13 L 6.40625 -13 L 6.40625 -8.09375 L 9.03125 -8.09375 C 10 -8.09375 10.726562 -8.300781 11.21875 -8.71875 C 11.71875 -9.144531 11.96875 -9.75 11.96875 -10.53125 Z M 11.96875 -10.53125 "></path></g></g></g><g fill="#3d4f73" fill-opacity="1"><g transform="translate(134.7716, 45.255107)"><g></g></g></g><g fill="#3d4f73" fill-opacity="1"><g transform="translate(143.800023, 45.255107)"><g><path d="M 18.640625 -16.71875 L 11.46875 0 L 6.8125 0 L -0.328125 -16.71875 L 4.78125 -16.71875 L 9.3125 -5.828125 L 13.953125 -16.71875 Z M 18.640625 -16.71875 "></path></g></g></g><g fill="#3d4f73" fill-opacity="1"><g transform="translate(164.172452, 45.255107)"><g><path d="M 15.09375 -3.65625 L 15.09375 0 L 1.671875 0 L 1.671875 -16.71875 L 14.78125 -16.71875 L 14.78125 -13.0625 L 6.359375 -13.0625 L 6.359375 -10.25 L 13.78125 -10.25 L 13.78125 -6.71875 L 6.359375 -6.71875 L 6.359375 -3.65625 Z M 15.09375 -3.65625 "></path></g></g></g><g fill="#3d4f73" fill-opacity="1"><g transform="translate(182.299961, 45.255107)"><g><path d="M 17.578125 -16.71875 L 17.578125 0 L 13.6875 0 L 6.3125 -8.90625 L 6.3125 0 L 1.671875 0 L 1.671875 -16.71875 L 5.5625 -16.71875 L 12.953125 -7.8125 L 12.953125 -16.71875 Z M 17.578125 -16.71875 "></path></g></g></g><g fill="#3d4f73" fill-opacity="1"><g transform="translate(56.683589, 14.286501)"><g><path d="M 5.140625 0.09375 C 4.273438 0.09375 3.492188 -0.09375 2.796875 -0.46875 C 2.109375 -0.851562 1.566406 -1.378906 1.171875 -2.046875 C 0.785156 -2.710938 0.59375 -3.460938 0.59375 -4.296875 C 0.59375 -5.128906 0.785156 -5.878906 1.171875 -6.546875 C 1.566406 -7.210938 2.113281 -7.734375 2.8125 -8.109375 C 3.507812 -8.492188 4.285156 -8.6875 5.140625 -8.6875 C 5.816406 -8.6875 6.429688 -8.570312 6.984375 -8.34375 C 7.546875 -8.125 8.019531 -7.796875 8.40625 -7.359375 L 7.609375 -6.578125 C 6.960938 -7.265625 6.15625 -7.609375 5.1875 -7.609375 C 4.550781 -7.609375 3.972656 -7.460938 3.453125 -7.171875 C 2.941406 -6.890625 2.539062 -6.492188 2.25 -5.984375 C 1.957031 -5.484375 1.8125 -4.921875 1.8125 -4.296875 C 1.8125 -3.671875 1.957031 -3.109375 2.25 -2.609375 C 2.539062 -2.109375 2.941406 -1.710938 3.453125 -1.421875 C 3.972656 -1.140625 4.550781 -1 5.1875 -1 C 6.144531 -1 6.953125 -1.34375 7.609375 -2.03125 L 8.40625 -1.25 C 8.019531 -0.8125 7.546875 -0.476562 6.984375 -0.25 C 6.421875 -0.0195312 5.804688 0.09375 5.140625 0.09375 Z M 5.140625 0.09375 "></path></g></g></g><g fill="#3d4f73" fill-opacity="1"><g transform="translate(68.605065, 14.286501)"><g><path d="M 5.171875 0.09375 C 4.304688 0.09375 3.523438 -0.09375 2.828125 -0.46875 C 2.128906 -0.851562 1.582031 -1.378906 1.1875 -2.046875 C 0.789062 -2.722656 0.59375 -3.472656 0.59375 -4.296875 C 0.59375 -5.117188 0.789062 -5.863281 1.1875 -6.53125 C 1.582031 -7.207031 2.128906 -7.734375 2.828125 -8.109375 C 3.523438 -8.492188 4.304688 -8.6875 5.171875 -8.6875 C 6.023438 -8.6875 6.800781 -8.492188 7.5 -8.109375 C 8.195312 -7.734375 8.742188 -7.210938 9.140625 -6.546875 C 9.535156 -5.878906 9.734375 -5.128906 9.734375 -4.296875 C 9.734375 -3.460938 9.535156 -2.710938 9.140625 -2.046875 C 8.742188 -1.378906 8.195312 -0.851562 7.5 -0.46875 C 6.800781 -0.09375 6.023438 0.09375 5.171875 0.09375 Z M 5.171875 -1 C 5.796875 -1 6.359375 -1.140625 6.859375 -1.421875 C 7.367188 -1.710938 7.769531 -2.109375 8.0625 -2.609375 C 8.351562 -3.109375 8.5 -3.671875 8.5 -4.296875 C 8.5 -4.921875 8.351562 -5.484375 8.0625 -5.984375 C 7.769531 -6.492188 7.367188 -6.890625 6.859375 -7.171875 C 6.359375 -7.460938 5.796875 -7.609375 5.171875 -7.609375 C 4.535156 -7.609375 3.960938 -7.460938 3.453125 -7.171875 C 2.941406 -6.890625 2.539062 -6.492188 2.25 -5.984375 C 1.957031 -5.484375 1.8125 -4.921875 1.8125 -4.296875 C 1.8125 -3.671875 1.957031 -3.109375 2.25 -2.609375 C 2.539062 -2.109375 2.941406 -1.710938 3.453125 -1.421875 C 3.960938 -1.140625 4.535156 -1 5.171875 -1 Z M 5.171875 -1 "></path></g></g></g><g fill="#3d4f73" fill-opacity="1"><g transform="translate(81.962547, 14.286501)"><g><path d="M 9.265625 0 L 9.25 -6.265625 L 6.140625 -1.046875 L 5.578125 -1.046875 L 2.46875 -6.21875 L 2.46875 0 L 1.296875 0 L 1.296875 -8.59375 L 2.296875 -8.59375 L 5.875 -2.546875 L 9.421875 -8.59375 L 10.421875 -8.59375 L 10.4375 0 Z M 9.265625 0 "></path></g></g></g><g fill="#3d4f73" fill-opacity="1"><g transform="translate(96.731496, 14.286501)"><g><path d="M 9.265625 0 L 9.25 -6.265625 L 6.140625 -1.046875 L 5.578125 -1.046875 L 2.46875 -6.21875 L 2.46875 0 L 1.296875 0 L 1.296875 -8.59375 L 2.296875 -8.59375 L 5.875 -2.546875 L 9.421875 -8.59375 L 10.421875 -8.59375 L 10.4375 0 Z M 9.265625 0 "></path></g></g></g><g fill="#3d4f73" fill-opacity="1"><g transform="translate(111.500445, 14.286501)"><g><path d="M 4.84375 0.09375 C 3.695312 0.09375 2.804688 -0.226562 2.171875 -0.875 C 1.535156 -1.53125 1.21875 -2.472656 1.21875 -3.703125 L 1.21875 -8.59375 L 2.4375 -8.59375 L 2.4375 -3.765625 C 2.4375 -1.921875 3.242188 -1 4.859375 -1 C 5.648438 -1 6.253906 -1.222656 6.671875 -1.671875 C 7.085938 -2.128906 7.296875 -2.828125 7.296875 -3.765625 L 7.296875 -8.59375 L 8.484375 -8.59375 L 8.484375 -3.703125 C 8.484375 -2.472656 8.164062 -1.53125 7.53125 -0.875 C 6.894531 -0.226562 6 0.09375 4.84375 0.09375 Z M 4.84375 0.09375 "></path></g></g></g><g fill="#3d4f73" fill-opacity="1"><g transform="translate(124.256521, 14.286501)"><g><path d="M 8.6875 -8.59375 L 8.6875 0 L 7.671875 0 L 2.515625 -6.40625 L 2.515625 0 L 1.296875 0 L 1.296875 -8.59375 L 2.296875 -8.59375 L 7.453125 -2.1875 L 7.453125 -8.59375 Z M 8.6875 -8.59375 "></path></g></g></g><g fill="#3d4f73" fill-opacity="1"><g transform="translate(137.27034, 14.286501)"><g></g></g></g><g fill="#3d4f73" fill-opacity="1"><g transform="translate(143.619598, 14.286501)"><g><path d="M 5.140625 0.09375 C 4.273438 0.09375 3.492188 -0.09375 2.796875 -0.46875 C 2.109375 -0.851562 1.566406 -1.378906 1.171875 -2.046875 C 0.785156 -2.710938 0.59375 -3.460938 0.59375 -4.296875 C 0.59375 -5.128906 0.785156 -5.878906 1.171875 -6.546875 C 1.566406 -7.210938 2.113281 -7.734375 2.8125 -8.109375 C 3.507812 -8.492188 4.285156 -8.6875 5.140625 -8.6875 C 5.816406 -8.6875 6.429688 -8.570312 6.984375 -8.34375 C 7.546875 -8.125 8.019531 -7.796875 8.40625 -7.359375 L 7.609375 -6.578125 C 6.960938 -7.265625 6.15625 -7.609375 5.1875 -7.609375 C 4.550781 -7.609375 3.972656 -7.460938 3.453125 -7.171875 C 2.941406 -6.890625 2.539062 -6.492188 2.25 -5.984375 C 1.957031 -5.484375 1.8125 -4.921875 1.8125 -4.296875 C 1.8125 -3.671875 1.957031 -3.109375 2.25 -2.609375 C 2.539062 -2.109375 2.941406 -1.710938 3.453125 -1.421875 C 3.972656 -1.140625 4.550781 -1 5.1875 -1 C 6.144531 -1 6.953125 -1.34375 7.609375 -2.03125 L 8.40625 -1.25 C 8.019531 -0.8125 7.546875 -0.476562 6.984375 -0.25 C 6.421875 -0.0195312 5.804688 0.09375 5.140625 0.09375 Z M 5.140625 0.09375 "></path></g></g></g><g fill="#3d4f73" fill-opacity="1"><g transform="translate(155.541075, 14.286501)"><g><path d="M 6.765625 -2.15625 L 2.203125 -2.15625 L 1.25 0 L -0.015625 0 L 3.875 -8.59375 L 5.09375 -8.59375 L 9 0 L 7.71875 0 Z M 6.34375 -3.125 L 4.484375 -7.34375 L 2.625 -3.125 Z M 6.34375 -3.125 "></path></g></g></g><g fill="#3d4f73" fill-opacity="1"><g transform="translate(167.573006, 14.286501)"><g><path d="M 3 -7.53125 L 0.046875 -7.53125 L 0.046875 -8.59375 L 7.15625 -8.59375 L 7.15625 -7.53125 L 4.21875 -7.53125 L 4.21875 0 L 3 0 Z M 3 -7.53125 "></path></g></g></g><g fill="#3d4f73" fill-opacity="1"><g transform="translate(177.825269, 14.286501)"><g><path d="M 1.296875 -8.59375 L 2.515625 -8.59375 L 2.515625 0 L 1.296875 0 Z M 1.296875 -8.59375 "></path></g></g></g><g fill="#3d4f73" fill-opacity="1"><g transform="translate(184.677747, 14.286501)"><g><path d="M 8.6875 -8.59375 L 8.6875 0 L 7.671875 0 L 2.515625 -6.40625 L 2.515625 0 L 1.296875 0 L 1.296875 -8.59375 L 2.296875 -8.59375 L 7.453125 -2.1875 L 7.453125 -8.59375 Z M 8.6875 -8.59375 "></path></g></g></g><g fill="#3d4f73" fill-opacity="1"><g transform="translate(197.691566, 14.286501)"><g><path d="M 7.25 -4.34375 L 8.421875 -4.34375 L 8.421875 -1 C 7.992188 -0.644531 7.5 -0.375 6.9375 -0.1875 C 6.375 0 5.785156 0.09375 5.171875 0.09375 C 4.304688 0.09375 3.523438 -0.09375 2.828125 -0.46875 C 2.128906 -0.851562 1.582031 -1.378906 1.1875 -2.046875 C 0.789062 -2.710938 0.59375 -3.460938 0.59375 -4.296875 C 0.59375 -5.128906 0.789062 -5.878906 1.1875 -6.546875 C 1.582031 -7.222656 2.128906 -7.75 2.828125 -8.125 C 3.523438 -8.5 4.3125 -8.6875 5.1875 -8.6875 C 5.875 -8.6875 6.5 -8.570312 7.0625 -8.34375 C 7.625 -8.125 8.101562 -7.800781 8.5 -7.375 L 7.734375 -6.609375 C 7.046875 -7.273438 6.21875 -7.609375 5.25 -7.609375 C 4.59375 -7.609375 4.003906 -7.460938 3.484375 -7.171875 C 2.960938 -6.890625 2.550781 -6.5 2.25 -6 C 1.957031 -5.5 1.8125 -4.929688 1.8125 -4.296875 C 1.8125 -3.671875 1.957031 -3.109375 2.25 -2.609375 C 2.550781 -2.109375 2.960938 -1.710938 3.484375 -1.421875 C 4.003906 -1.140625 4.585938 -1 5.234375 -1 C 6.003906 -1 6.675781 -1.179688 7.25 -1.546875 Z M 7.25 -4.34375 "></path></g></g></g><g fill="#3d4f73" fill-opacity="1"><g transform="translate(84.335377, 77.502405)"><g><path d="M 13.84375 -3.359375 L 13.84375 0 L 1.53125 0 L 1.53125 -15.328125 L 13.5625 -15.328125 L 13.5625 -11.984375 L 5.828125 -11.984375 L 5.828125 -9.390625 L 12.640625 -9.390625 L 12.640625 -6.15625 L 5.828125 -6.15625 L 5.828125 -3.359375 Z M 13.84375 -3.359375 "></path></g></g></g><g fill="#3d4f73" fill-opacity="1"><g transform="translate(100.956859, 77.502405)"><g><path d="M 4.796875 -11.890625 L 0.09375 -11.890625 L 0.09375 -15.328125 L 13.828125 -15.328125 L 13.828125 -11.890625 L 9.140625 -11.890625 L 9.140625 0 L 4.796875 0 Z M 4.796875 -11.890625 "></path></g></g></g><g fill="#3d4f73" fill-opacity="1"><g transform="translate(116.768084, 77.502405)"><g><path d="M 16.125 -15.328125 L 16.125 0 L 11.78125 0 L 11.78125 -5.984375 L 5.875 -5.984375 L 5.875 0 L 1.53125 0 L 1.53125 -15.328125 L 5.875 -15.328125 L 5.875 -9.578125 L 11.78125 -9.578125 L 11.78125 -15.328125 Z M 16.125 -15.328125 "></path></g></g></g><g fill="#3d4f73" fill-opacity="1"><g transform="translate(136.323995, 77.502405)"><g></g></g></g><g fill="#3d4f73" fill-opacity="1"><g transform="translate(144.602051, 77.502405)"><g><path d="M 9.171875 0.3125 C 7.566406 0.3125 6.125 -0.0234375 4.84375 -0.703125 C 3.570312 -1.390625 2.570312 -2.335938 1.84375 -3.546875 C 1.113281 -4.753906 0.75 -6.128906 0.75 -7.671875 C 0.75 -9.203125 1.113281 -10.570312 1.84375 -11.78125 C 2.570312 -13 3.570312 -13.945312 4.84375 -14.625 C 6.125 -15.300781 7.566406 -15.640625 9.171875 -15.640625 C 10.578125 -15.640625 11.84375 -15.390625 12.96875 -14.890625 C 14.09375 -14.398438 15.023438 -13.6875 15.765625 -12.75 L 13.015625 -10.25 C 12.015625 -11.445312 10.804688 -12.046875 9.390625 -12.046875 C 8.566406 -12.046875 7.828125 -11.863281 7.171875 -11.5 C 6.523438 -11.132812 6.019531 -10.617188 5.65625 -9.953125 C 5.300781 -9.285156 5.125 -8.523438 5.125 -7.671875 C 5.125 -6.804688 5.300781 -6.039062 5.65625 -5.375 C 6.019531 -4.707031 6.523438 -4.191406 7.171875 -3.828125 C 7.828125 -3.460938 8.566406 -3.28125 9.390625 -3.28125 C 10.804688 -3.28125 12.015625 -3.878906 13.015625 -5.078125 L 15.765625 -2.578125 C 15.023438 -1.648438 14.09375 -0.9375 12.96875 -0.4375 C 11.84375 0.0625 10.578125 0.3125 9.171875 0.3125 Z M 9.171875 0.3125 "></path></g></g></g><g fill="#3d4f73" fill-opacity="1"><g transform="translate(162.66885, 77.502405)"><g><path d="M 11.8125 -2.984375 L 5.328125 -2.984375 L 4.125 0 L -0.3125 0 L 6.46875 -15.328125 L 10.734375 -15.328125 L 17.53125 0 L 13.015625 0 Z M 10.53125 -6.171875 L 8.5625 -11.078125 L 6.59375 -6.171875 Z M 10.53125 -6.171875 "></path></g></g></g><g fill="#3d4f73" fill-opacity="1"><g transform="translate(181.786785, 77.502405)"><g><path d="M 1.53125 -15.328125 L 5.875 -15.328125 L 5.875 -3.4375 L 13.1875 -3.4375 L 13.1875 0 L 1.53125 0 Z M 1.53125 -15.328125 "></path></g></g></g><path stroke-linecap="butt" transform="matrix(0.000000000000000046, -0.749694, 0.746681, 0.000000000000000046, 139.620927, 81.657241)" fill="none" stroke-linejoin="miter" d="M 0.00132201 0.999437 L 104.585727 0.999437 " stroke="#3d4f73" stroke-width="2" stroke-opacity="1" stroke-miterlimit="4"></path><g fill="#3d4f73" fill-opacity="1"><g transform="translate(136.767992, 99.33538)"><g><path d="M 4.9375 0.21875 C 4.050781 0.21875 3.191406 0.109375 2.359375 -0.109375 C 1.523438 -0.328125 0.847656 -0.617188 0.328125 -0.984375 L 1.34375 -3.265625 C 1.832031 -2.941406 2.398438 -2.679688 3.046875 -2.484375 C 3.691406 -2.285156 4.328125 -2.1875 4.953125 -2.1875 C 6.140625 -2.1875 6.734375 -2.484375 6.734375 -3.078125 C 6.734375 -3.390625 6.5625 -3.617188 6.21875 -3.765625 C 5.882812 -3.921875 5.34375 -4.082031 4.59375 -4.25 C 3.769531 -4.425781 3.082031 -4.613281 2.53125 -4.8125 C 1.976562 -5.019531 1.503906 -5.347656 1.109375 -5.796875 C 0.710938 -6.242188 0.515625 -6.847656 0.515625 -7.609375 C 0.515625 -8.265625 0.695312 -8.859375 1.0625 -9.390625 C 1.425781 -9.929688 1.96875 -10.359375 2.6875 -10.671875 C 3.414062 -10.984375 4.304688 -11.140625 5.359375 -11.140625 C 6.078125 -11.140625 6.78125 -11.054688 7.46875 -10.890625 C 8.164062 -10.734375 8.78125 -10.5 9.3125 -10.1875 L 8.359375 -7.890625 C 7.328125 -8.453125 6.320312 -8.734375 5.34375 -8.734375 C 4.726562 -8.734375 4.28125 -8.640625 4 -8.453125 C 3.71875 -8.273438 3.578125 -8.039062 3.578125 -7.75 C 3.578125 -7.46875 3.742188 -7.253906 4.078125 -7.109375 C 4.410156 -6.960938 4.945312 -6.8125 5.6875 -6.65625 C 6.519531 -6.476562 7.207031 -6.285156 7.75 -6.078125 C 8.289062 -5.878906 8.757812 -5.554688 9.15625 -5.109375 C 9.5625 -4.671875 9.765625 -4.070312 9.765625 -3.3125 C 9.765625 -2.65625 9.582031 -2.0625 9.21875 -1.53125 C 8.851562 -1 8.304688 -0.570312 7.578125 -0.25 C 6.859375 0.0625 5.976562 0.21875 4.9375 0.21875 Z M 4.9375 0.21875 "></path></g></g></g><g fill="#3d4f73" fill-opacity="1"><g transform="translate(146.715159, 97.882147)"><g><path d="M 2.75 -6.921875 L 0.046875 -6.921875 L 0.046875 -7.90625 L 6.59375 -7.90625 L 6.59375 -6.921875 L 3.875 -6.921875 L 3.875 0 L 2.75 0 Z M 2.75 -6.921875 "></path></g></g></g><g fill="#3d4f73" fill-opacity="1"><g transform="translate(156.138357, 97.882147)"><g><path d="M 4.75 0.09375 C 3.957031 0.09375 3.238281 -0.078125 2.59375 -0.421875 C 1.957031 -0.773438 1.457031 -1.257812 1.09375 -1.875 C 0.726562 -2.5 0.546875 -3.191406 0.546875 -3.953125 C 0.546875 -4.710938 0.726562 -5.398438 1.09375 -6.015625 C 1.457031 -6.640625 1.957031 -7.125 2.59375 -7.46875 C 3.238281 -7.820312 3.957031 -8 4.75 -8 C 5.539062 -8 6.253906 -7.820312 6.890625 -7.46875 C 7.535156 -7.125 8.039062 -6.644531 8.40625 -6.03125 C 8.769531 -5.414062 8.953125 -4.722656 8.953125 -3.953125 C 8.953125 -3.179688 8.769531 -2.488281 8.40625 -1.875 C 8.039062 -1.257812 7.535156 -0.773438 6.890625 -0.421875 C 6.253906 -0.078125 5.539062 0.09375 4.75 0.09375 Z M 4.75 -0.921875 C 5.332031 -0.921875 5.851562 -1.050781 6.3125 -1.3125 C 6.78125 -1.570312 7.144531 -1.929688 7.40625 -2.390625 C 7.675781 -2.859375 7.8125 -3.378906 7.8125 -3.953125 C 7.8125 -4.523438 7.675781 -5.039062 7.40625 -5.5 C 7.144531 -5.96875 6.78125 -6.332031 6.3125 -6.59375 C 5.851562 -6.863281 5.332031 -7 4.75 -7 C 4.175781 -7 3.648438 -6.863281 3.171875 -6.59375 C 2.703125 -6.332031 2.332031 -5.96875 2.0625 -5.5 C 1.800781 -5.039062 1.671875 -4.523438 1.671875 -3.953125 C 1.671875 -3.378906 1.800781 -2.859375 2.0625 -2.390625 C 2.332031 -1.929688 2.703125 -1.570312 3.171875 -1.3125 C 3.648438 -1.050781 4.175781 -0.921875 4.75 -0.921875 Z M 4.75 -0.921875 "></path></g></g></g><g fill="#3d4f73" fill-opacity="1"><g transform="translate(168.415866, 97.882147)"><g><path d="M 6.46875 0 L 4.765625 -2.421875 C 4.554688 -2.410156 4.390625 -2.40625 4.265625 -2.40625 L 2.3125 -2.40625 L 2.3125 0 L 1.1875 0 L 1.1875 -7.90625 L 4.265625 -7.90625 C 5.296875 -7.90625 6.101562 -7.660156 6.6875 -7.171875 C 7.269531 -6.679688 7.5625 -6.007812 7.5625 -5.15625 C 7.5625 -4.539062 7.410156 -4.019531 7.109375 -3.59375 C 6.816406 -3.164062 6.390625 -2.851562 5.828125 -2.65625 L 7.703125 0 Z M 4.234375 -3.359375 C 4.953125 -3.359375 5.5 -3.515625 5.875 -3.828125 C 6.25 -4.140625 6.4375 -4.582031 6.4375 -5.15625 C 6.4375 -5.726562 6.25 -6.164062 5.875 -6.46875 C 5.5 -6.769531 4.953125 -6.921875 4.234375 -6.921875 L 2.3125 -6.921875 L 2.3125 -3.359375 Z M 4.234375 -3.359375 "></path></g></g></g><g fill="#3d4f73" fill-opacity="1"><g transform="translate(179.418526, 97.882147)"><g><path d="M 1.1875 -7.90625 L 2.3125 -7.90625 L 2.3125 0 L 1.1875 0 Z M 1.1875 -7.90625 "></path></g></g></g><g fill="#3d4f73" fill-opacity="1"><g transform="translate(185.716659, 97.882147)"><g><path d="M 6.921875 -0.984375 L 6.921875 0 L 1.1875 0 L 1.1875 -7.90625 L 6.765625 -7.90625 L 6.765625 -6.921875 L 2.3125 -6.921875 L 2.3125 -4.5 L 6.28125 -4.5 L 6.28125 -3.53125 L 2.3125 -3.53125 L 2.3125 -0.984375 Z M 6.921875 -0.984375 "></path></g></g></g><g fill="#3d4f73" fill-opacity="1"><g transform="translate(196.076248, 97.882147)"><g><path d="M 3.484375 0.09375 C 2.890625 0.09375 2.316406 0 1.765625 -0.1875 C 1.210938 -0.375 0.78125 -0.613281 0.46875 -0.90625 L 0.875 -1.78125 C 1.175781 -1.507812 1.5625 -1.289062 2.03125 -1.125 C 2.507812 -0.957031 2.992188 -0.875 3.484375 -0.875 C 4.140625 -0.875 4.628906 -0.984375 4.953125 -1.203125 C 5.273438 -1.421875 5.4375 -1.71875 5.4375 -2.09375 C 5.4375 -2.363281 5.347656 -2.582031 5.171875 -2.75 C 5.003906 -2.914062 4.789062 -3.046875 4.53125 -3.140625 C 4.269531 -3.234375 3.898438 -3.335938 3.421875 -3.453125 C 2.828125 -3.585938 2.347656 -3.726562 1.984375 -3.875 C 1.617188 -4.019531 1.304688 -4.238281 1.046875 -4.53125 C 0.785156 -4.832031 0.65625 -5.234375 0.65625 -5.734375 C 0.65625 -6.160156 0.765625 -6.539062 0.984375 -6.875 C 1.210938 -7.21875 1.550781 -7.488281 2 -7.6875 C 2.445312 -7.894531 3.007812 -8 3.6875 -8 C 4.15625 -8 4.613281 -7.9375 5.0625 -7.8125 C 5.507812 -7.695312 5.894531 -7.523438 6.21875 -7.296875 L 5.859375 -6.390625 C 5.523438 -6.597656 5.164062 -6.753906 4.78125 -6.859375 C 4.40625 -6.972656 4.039062 -7.03125 3.6875 -7.03125 C 3.039062 -7.03125 2.554688 -6.914062 2.234375 -6.6875 C 1.921875 -6.457031 1.765625 -6.15625 1.765625 -5.78125 C 1.765625 -5.507812 1.851562 -5.289062 2.03125 -5.125 C 2.207031 -4.957031 2.429688 -4.828125 2.703125 -4.734375 C 2.972656 -4.640625 3.335938 -4.535156 3.796875 -4.421875 C 4.390625 -4.285156 4.863281 -4.144531 5.21875 -4 C 5.582031 -3.851562 5.894531 -3.632812 6.15625 -3.34375 C 6.414062 -3.050781 6.546875 -2.65625 6.546875 -2.15625 C 6.546875 -1.738281 6.429688 -1.359375 6.203125 -1.015625 C 5.984375 -0.679688 5.644531 -0.410156 5.1875 -0.203125 C 4.726562 -0.00390625 4.160156 0.09375 3.484375 0.09375 Z M 3.484375 0.09375 "></path></g></g></g></svg>